  0
SECTION
  2
HEADER
  9
$ACADVER
  1
AC1024
  9
$ACADMAINTVER
 70
6
  9
$DWGCODEPAGE
  3
ANSI_1252
  9
$LASTSAVEDBY
  1
ezdxf
  9
$INSBASE
 10
0.0
 20
0.0
 30
0.0
  9
$EXTMIN
 10
1e+20
 20
1e+20
 30
1e+20
  9
$EXTMAX
 10
-1e+20
 20
-1e+20
 30
-1e+20
  9
$LIMMIN
 10
0.0
 20
0.0
  9
$LIMMAX
 10
420.0
 20
297.0
  9
$ORTHOMODE
 70
0
  9
$REGENMODE
 70
1
  9
$FILLMODE
 70
1
  9
$QTEXTMODE
 70
0
  9
$MIRRTEXT
 70
1
  9
$LTSCALE
 40
1.0
  9
$ATTMODE
 70
1
  9
$TEXTSIZE
 40
2.5
  9
$TRACEWID
 40
1.0
  9
$TEXTSTYLE
  7
Standard
  9
$CLAYER
  8
0
  9
$CELTYPE
  6
ByLayer
  9
$CECOLOR
 62
256
  9
$CELTSCALE
 40
1.0
  9
$DISPSILH
 70
0
  9
$DIMSCALE
 40
1.0
  9
$DIMASZ
 40
2.5
  9
$DIMEXO
 40
0.625
  9
$DIMDLI
 40
3.75
  9
$DIMRND
 40
0.0
  9
$DIMDLE
 40
0.0
  9
$DIMEXE
 40
1.25
  9
$DIMTP
 40
0.0
  9
$DIMTM
 40
0.0
  9
$DIMTXT
 40
2.5
  9
$DIMCEN
 40
2.5
  9
$DIMTSZ
 40
0.0
  9
$DIMTOL
 70
0
  9
$DIMLIM
 70
0
  9
$DIMTIH
 70
0
  9
$DIMTOH
 70
0
  9
$DIMSE1
 70
0
  9
$DIMSE2
 70
0
  9
$DIMTAD
 70
1
  9
$DIMZIN
 70
8
  9
$DIMBLK
  1

  9
$DIMASO
 70
1
  9
$DIMSHO
 70
1
  9
$DIMPOST
  1

  9
$DIMAPOST
  1

  9
$DIMALT
 70
0
  9
$DIMALTD
 70
3
  9
$DIMALTF
 40
0.03937007874
  9
$DIMLFAC
 40
1.0
  9
$DIMTOFL
 70
1
  9
$DIMTVP
 40
0.0
  9
$DIMTIX
 70
0
  9
$DIMSOXD
 70
0
  9
$DIMSAH
 70
0
  9
$DIMBLK1
  1

  9
$DIMBLK2
  1

  9
$DIMSTYLE
  2
ISO-25
  9
$DIMCLRD
 70
0
  9
$DIMCLRE
 70
0
  9
$DIMCLRT
 70
0
  9
$DIMTFAC
 40
1.0
  9
$DIMGAP
 40
0.625
  9
$DIMJUST
 70
0
  9
$DIMSD1
 70
0
  9
$DIMSD2
 70
0
  9
$DIMTOLJ
 70
0
  9
$DIMTZIN
 70
8
  9
$DIMALTZ
 70
0
  9
$DIMALTTZ
 70
0
  9
$DIMUPT
 70
0
  9
$DIMDEC
 70
2
  9
$DIMTDEC
 70
2
  9
$DIMALTU
 70
2
  9
$DIMALTTD
 70
3
  9
$DIMTXSTY
  7
Standard
  9
$DIMAUNIT
 70
0
  9
$DIMADEC
 70
0
  9
$DIMALTRND
 40
0.0
  9
$DIMAZIN
 70
0
  9
$DIMDSEP
 70
44
  9
$DIMATFIT
 70
3
  9
$DIMFRAC
 70
0
  9
$DIMLDRBLK
  1

  9
$DIMLUNIT
 70
2
  9
$DIMLWD
 70
-2
  9
$DIMLWE
 70
-2
  9
$DIMTMOVE
 70
0
  9
$DIMFXL
 40
1.0
  9
$DIMFXLON
 70
0
  9
$DIMJOGANG
 40
0.785398163397
  9
$DIMTFILL
 70
0
  9
$DIMTFILLCLR
 70
0
  9
$DIMARCSYM
 70
0
  9
$DIMLTYPE
  6

  9
$DIMLTEX1
  6

  9
$DIMLTEX2
  6

  9
$DIMTXTDIRECTION
 70
0
  9
$LUNITS
 70
2
  9
$LUPREC
 70
4
  9
$SKETCHINC
 40
1.0
  9
$FILLETRAD
 40
10.0
  9
$AUNITS
 70
0
  9
$AUPREC
 70
2
  9
$MENU
  1
.
  9
$ELEVATION
 40
0.0
  9
$PELEVATION
 40
0.0
  9
$THICKNESS
 40
0.0
  9
$LIMCHECK
 70
0
  9
$CHAMFERA
 40
0.0
  9
$CHAMFERB
 40
0.0
  9
$CHAMFERC
 40
0.0
  9
$CHAMFERD
 40
0.0
  9
$SKPOLY
 70
0
  9
$TDCREATE
 40
2461234.533113426
  9
$TDUCREATE
 40
2458532.153996898
  9
$TDUPDATE
 40
2461234.533113426
  9
$TDUUPDATE
 40
2458532.1544311
  9
$TDINDWG
 40
0.0
  9
$TDUSRTIMER
 40
0.0
  9
$USRTIMER
 70
1
  9
$ANGBASE
 50
0.0
  9
$ANGDIR
 70
0
  9
$PDMODE
 70
0
  9
$PDSIZE
 40
0.0
  9
$PLINEWID
 40
0.0
  9
$SPLFRAME
 70
0
  9
$SPLINETYPE
 70
6
  9
$SPLINESEGS
 70
8
  9
$HANDSEED
  5
34
  9
$SURFTAB1
 70
6
  9
$SURFTAB2
 70
6
  9
$SURFTYPE
 70
6
  9
$SURFU
 70
6
  9
$SURFV
 70
6
  9
$UCSBASE
  2

  9
$UCSNAME
  2

  9
$UCSORG
 10
0.0
 20
0.0
 30
0.0
  9
$UCSXDIR
 10
1.0
 20
0.0
 30
0.0
  9
$UCSYDIR
 10
0.0
 20
1.0
 30
0.0
  9
$UCSORTHOREF
  2

  9
$UCSORTHOVIEW
 70
0
  9
$UCSORGTOP
 10
0.0
 20
0.0
 30
0.0
  9
$UCSORGBOTTOM
 10
0.0
 20
0.0
 30
0.0
  9
$UCSORGLEFT
 10
0.0
 20
0.0
 30
0.0
  9
$UCSORGRIGHT
 10
0.0
 20
0.0
 30
0.0
  9
$UCSORGFRONT
 10
0.0
 20
0.0
 30
0.0
  9
$UCSORGBACK
 10
0.0
 20
0.0
 30
0.0
  9
$PUCSBASE
  2

  9
$PUCSNAME
  2

  9
$PUCSORG
 10
0.0
 20
0.0
 30
0.0
  9
$PUCSXDIR
 10
1.0
 20
0.0
 30
0.0
  9
$PUCSYDIR
 10
0.0
 20
1.0
 30
0.0
  9
$PUCSORTHOREF
  2

  9
$PUCSORTHOVIEW
 70
0
  9
$PUCSORGTOP
 10
0.0
 20
0.0
 30
0.0
  9
$PUCSORGBOTTOM
 10
0.0
 20
0.0
 30
0.0
  9
$PUCSORGLEFT
 10
0.0
 20
0.0
 30
0.0
  9
$PUCSORGRIGHT
 10
0.0
 20
0.0
 30
0.0
  9
$PUCSORGFRONT
 10
0.0
 20
0.0
 30
0.0
  9
$PUCSORGBACK
 10
0.0
 20
0.0
 30
0.0
  9
$USERI1
 70
0
  9
$USERI2
 70
0
  9
$USERI3
 70
0
  9
$USERI4
 70
0
  9
$USERI5
 70
0
  9
$USERR1
 40
0.0
  9
$USERR2
 40
0.0
  9
$USERR3
 40
0.0
  9
$USERR4
 40
0.0
  9
$USERR5
 40
0.0
  9
$WORLDVIEW
 70
1
  9
$SHADEDGE
 70
3
  9
$SHADEDIF
 70
70
  9
$TILEMODE
 70
1
  9
$MAXACTVP
 70
64
  9
$PINSBASE
 10
0.0
 20
0.0
 30
0.0
  9
$PLIMCHECK
 70
0
  9
$PEXTMIN
 10
1e+20
 20
1e+20
 30
1e+20
  9
$PEXTMAX
 10
-1e+20
 20
-1e+20
 30
-1e+20
  9
$PLIMMIN
 10
0.0
 20
0.0
  9
$PLIMMAX
 10
420.0
 20
297.0
  9
$UNITMODE
 70
0
  9
$VISRETAIN
 70
1
  9
$PLINEGEN
 70
0
  9
$PSLTSCALE
 70
1
  9
$TREEDEPTH
 70
3020
  9
$CMLSTYLE
  2
Standard
  9
$CMLJUST
 70
0
  9
$CMLSCALE
 40
20.0
  9
$PROXYGRAPHICS
 70
1
  9
$MEASUREMENT
 70
1
  9
$CELWEIGHT
370
-1
  9
$ENDCAPS
280
0
  9
$JOINSTYLE
280
0
  9
$LWDISPLAY
290
0
  9
$INSUNITS
 70
1
  9
$HYPERLINKBASE
  1

  9
$STYLESHEET
  1

  9
$XEDIT
290
1
  9
$CEPSNTYPE
380
0
  9
$PSTYLEMODE
290
1
  9
$FINGERPRINTGUID
  2
{65A65C75-1DDA-4101-BC47-3B8F3C61F66D}
  9
$VERSIONGUID
  2
{4B047B75-4DA9-4813-AF28-E16A6037C634}
  9
$EXTNAMES
290
1
  9
$PSVPSCALE
 40
0.0
  9
$OLESTARTUP
290
0
  9
$SORTENTS
280
127
  9
$INDEXCTL
280
0
  9
$HIDETEXT
280
1
  9
$XCLIPFRAME
280
1
  9
$HALOGAP
280
0
  9
$OBSCOLOR
 70
257
  9
$OBSLTYPE
280
0
  9
$INTERSECTIONDISPLAY
280
0
  9
$INTERSECTIONCOLOR
 70
257
  9
$DIMASSOC
280
2
  9
$PROJECTNAME
  1

  9
$CAMERADISPLAY
290
0
  9
$LENSLENGTH
 40
50.0
  9
$CAMERAHEIGHT
 40
0.0
  9
$STEPSPERSEC
 40
24.0
  9
$STEPSIZE
 40
100.0
  9
$3DDWFPREC
 40
2.0
  9
$PSOLWIDTH
 40
0.005
  9
$PSOLHEIGHT
 40
0.08
  9
$LOFTANG1
 40
1.570796326795
  9
$LOFTANG2
 40
1.570796326795
  9
$LOFTMAG1
 40
0.0
  9
$LOFTMAG2
 40
0.0
  9
$LOFTPARAM
 70
7
  9
$LOFTNORMALS
280
1
  9
$LATITUDE
 40
37.795
  9
$LONGITUDE
 40
-122.394
  9
$NORTHDIRECTION
 40
0.0
  9
$TIMEZONE
 70
-8000
  9
$LIGHTGLYPHDISPLAY
280
1
  9
$TILEMODELIGHTSYNCH
280
1
  9
$CMATERIAL
347
20
  9
$SOLIDHIST
280
0
  9
$SHOWHIST
280
1
  9
$DWFFRAME
280
2
  9
$DGNFRAME
280
2
  9
$REALWORLDSCALE
290
1
  9
$INTERFERECOLOR
 62
256
  9
$CSHADOW
280
0
  9
$SHADOWPLANELOCATION
 40
0.0
  0
ENDSEC
  0
SECTION
  2
CLASSES
  0
CLASS
  1
ACDBDICTIONARYWDFLT
  2
AcDbDictionaryWithDefault
  3
ObjectDBX Classes
 90
0
 91
0
280
0
281
0
  0
CLASS
  1
SUN
  2
AcDbSun
  3
SCENEOE
 90
1153
 91
0
280
0
281
0
  0
CLASS
  1
VISUALSTYLE
  2
AcDbVisualStyle
  3
ObjectDBX Classes
 90
4095
 91
0
280
0
281
0
  0
CLASS
  1
MATERIAL
  2
AcDbMaterial
  3
ObjectDBX Classes
 90
1153
 91
0
280
0
281
0
  0
CLASS
  1
SCALE
  2
AcDbScale
  3
ObjectDBX Classes
 90
1153
 91
0
280
0
281
0
  0
CLASS
  1
TABLESTYLE
  2
AcDbTableStyle
  3
ObjectDBX Classes
 90
4095
 91
0
280
0
281
0
  0
CLASS
  1
MLEADERSTYLE
  2
AcDbMLeaderStyle
  3
ACDB_MLEADERSTYLE_CLASS
 90
4095
 91
0
280
0
281
0
  0
CLASS
  1
DICTIONARYVAR
  2
AcDbDictionaryVar
  3
ObjectDBX Classes
 90
0
 91
0
280
0
281
0
  0
CLASS
  1
CELLSTYLEMAP
  2
AcDbCellStyleMap
  3
ObjectDBX Classes
 90
1152
 91
0
280
0
281
0
  0
CLASS
  1
MENTALRAYRENDERSETTINGS
  2
AcDbMentalRayRenderSettings
  3
SCENEOE
 90
1024
 91
0
280
0
281
0
  0
CLASS
  1
ACDBDETAILVIEWSTYLE
  2
AcDbDetailViewStyle
  3
ObjectDBX Classes
 90
1025
 91
0
280
0
281
0
  0
CLASS
  1
ACDBSECTIONVIEWSTYLE
  2
AcDbSectionViewStyle
  3
ObjectDBX Classes
 90
1025
 91
0
280
0
281
0
  0
CLASS
  1
RASTERVARIABLES
  2
AcDbRasterVariables
  3
ISM
 90
0
 91
0
280
0
281
0
  0
CLASS
  1
LAYOUT
  2
AcDbLayout
  3
ObjectDBX Classes
 90
0
 91
0
280
0
281
0
  0
CLASS
  1
ACDBPLACEHOLDER
  2
AcDbPlaceHolder
  3
ObjectDBX Classes
 90
0
 91
0
280
0
281
0
  0
ENDSEC
  0
SECTION
  2
TABLES
  0
TABLE
  2
VPORT
  5
8
330
0
100
AcDbSymbolTable
 70
1
  0
VPORT
  5
23
330
8
100
AcDbSymbolTableRecord
100
AcDbViewportTableRecord
  2
*Active
 70
0
 10
0.0
 20
0.0
 11
1.0
 21
1.0
 12
0.0
 22
0.0
 13
0.0
 23
0.0
 14
0.5
 24
0.5
 15
0.5
 25
0.5
 16
0.0
 26
0.0
 36
1.0
 17
0.0
 27
0.0
 37
0.0
 40
1000.0
 41
1.34
 42
50.0
 43
0.0
 44
0.0
 50
0.0
 51
0.0
 71
0
 72
1000
 73
1
 74
3
 75
0
 76
0
 77
0
 78
0
281
0
 65
0
146
0.0
  0
ENDTAB
  0
TABLE
  2
LTYPE
  5
2
330
0
100
AcDbSymbolTable
 70
3
  0
LTYPE
  5
24
330
2
100
AcDbSymbolTableRecord
100
AcDbLinetypeTableRecord
  2
ByBlock
 70
0
  3

 72
65
 73
0
 40
0.0
  0
LTYPE
  5
25
330
2
100
AcDbSymbolTableRecord
100
AcDbLinetypeTableRecord
  2
ByLayer
 70
0
  3

 72
65
 73
0
 40
0.0
  0
LTYPE
  5
26
330
2
100
AcDbSymbolTableRecord
100
AcDbLinetypeTableRecord
  2
Continuous
 70
0
  3

 72
65
 73
0
 40
0.0
  0
ENDTAB
  0
TABLE
  2
LAYER
  5
1
330
0
100
AcDbSymbolTable
 70
3
  0
LAYER
  5
27
330
1
100
AcDbSymbolTableRecord
100
AcDbLayerTableRecord
  2
0
 70
0
 62
7
  6
Continuous
370
-3
390
13
347
21
  0
LAYER
  5
28
330
1
100
AcDbSymbolTableRecord
100
AcDbLayerTableRecord
  2
Defpoints
 70
0
 62
7
  6
Continuous
290
0
370
-3
390
13
347
21
  0
LAYER
  5
2F
330
1
100
AcDbSymbolTableRecord
100
AcDbLayerTableRecord
  2
TRACE
 70
0
 62
7
  6
Continuous
370
-3
390
13
347
21
  0
ENDTAB
  0
TABLE
  2
STYLE
  5
5
330
0
100
AcDbSymbolTable
 70
1
  0
STYLE
  5
29
330
5
100
AcDbSymbolTableRecord
100
AcDbTextStyleTableRecord
  2
Standard
 70
0
 40
0.0
 41
1.0
 50
0.0
 71
0
 42
2.5
  3
txt
  4

  0
ENDTAB
  0
TABLE
  2
VIEW
  5
7
330
0
100
AcDbSymbolTable
 70
0
  0
ENDTAB
  0
TABLE
  2
UCS
  5
6
330
0
100
AcDbSymbolTable
 70
0
  0
ENDTAB
  0
TABLE
  2
APPID
  5
3
330
0
100
AcDbSymbolTable
 70
3
  0
APPID
  5
2A
330
3
100
AcDbSymbolTableRecord
100
AcDbRegAppTableRecord
  2
ACAD
 70
0
  0
APPID
  5
31
330
3
100
AcDbSymbolTableRecord
100
AcDbRegAppTableRecord
  2
HATCHBACKGROUNDCOLOR
 70
0
  0
APPID
  5
32
330
3
100
AcDbSymbolTableRecord
100
AcDbRegAppTableRecord
  2
EZDXF
 70
0
  0
ENDTAB
  0
TABLE
  2
DIMSTYLE
  5
4
330
0
100
AcDbSymbolTable
 70
1
100
AcDbDimStyleTable
  0
DIMSTYLE
105
2B
330
4
100
AcDbSymbolTableRecord
100
AcDbDimStyleTableRecord
  2
Standard
 70
0
 40
1.0
 41
2.5
 42
0.625
 43
3.75
 44
1.25
 45
0.0
 46
0.0
 47
0.0
 48
0.0
 49
2.5
140
2.5
141
2.5
142
0.0
143
0.03937007874
144
1.0
145
0.0
146
1.0
147
0.625
148
0.0
 69
0
 70
0
 71
0
 72
0
 73
0
 74
0
 75
0
 76
0
 77
1
 78
8
 79
3
170
0
171
3
172
1
173
0
174
0
175
0
176
0
177
0
178
0
179
2
271
2
272
2
273
2
274
3
275
0
276
0
277
2
278
44
279
0
280
0
281
0
282
0
283
0
284
8
285
0
286
0
288
0
289
3
290
0
371
-2
372
-2
  0
ENDTAB
  0
TABLE
  2
BLOCK_RECORD
  5
9
330
0
100
AcDbSymbolTable
 70
2
  0
BLOCK_RECORD
  5
17
330
9
100
AcDbSymbolTableRecord
100
AcDbBlockTableRecord
  2
*Model_Space
340
1A
 70
0
280
1
281
0
  0
BLOCK_RECORD
  5
1B
330
9
100
AcDbSymbolTableRecord
100
AcDbBlockTableRecord
  2
*Paper_Space
340
1E
 70
0
280
1
281
0
  0
ENDTAB
  0
ENDSEC
  0
SECTION
  2
BLOCKS
  0
BLOCK
  5
18
330
17
100
AcDbEntity
  8
0
100
AcDbBlockBegin
  2
*Model_Space
 70
0
 10
0.0
 20
0.0
 30
0.0
  3
*Model_Space
  1

  0
ENDBLK
  5
19
330
17
100
AcDbEntity
  8
0
100
AcDbBlockEnd
  0
BLOCK
  5
1C
330
1B
100
AcDbEntity
  8
0
100
AcDbBlockBegin
  2
*Paper_Space
 70
0
 10
0.0
 20
0.0
 30
0.0
  3
*Paper_Space
  1

  0
ENDBLK
  5
1D
330
1B
100
AcDbEntity
  8
0
100
AcDbBlockEnd
  0
ENDSEC
  0
SECTION
  2
ENTITIES
  0
LWPOLYLINE
  5
30
330
17
100
AcDbEntity
  8
TRACE
100
AcDbPolyline
 90
634
 70
0
 10
9.195502241870816
 20
14.102456358917737
 10
9.197025111054883
 20
14.072473620380672
 10
9.198405227016329
 20
14.042472064473042
 10
9.199160356254005
 20
14.012475794097236
 10
9.199160356254005
 20
13.982478185889725
 10
9.199160356254005
 20
13.952470664568583
 10
9.199160356254005
 20
13.922475337254472
 10
9.202643784906948
 20
13.892651449783845
 10
9.20343159232894
 20
13.862665224111675
 10
9.205338923641218
 20
13.832735187371192
 10
9.205338923641218
 20
13.802737864275356
 10
9.20629613126163
 20
13.772747976014742
 10
9.205496085969271
 20
13.742620269156657
 10
9.204345090136373
 20
13.712551251440335
 10
9.205778872887763
 20
13.682590203322254
 10
9.207318081163987
 20
13.65263130450757
 10
9.208537065165594
 20
13.622655496377382
 10
9.206957283304817
 20
13.592663568471707
 10
9.207543143934078
 20
13.562682518673025
 10
9.208248663740266
 20
13.532695042895819
 10
9.210829977121117
 20
13.50272445450245
 10
9.211849953173415
 20
13.472739851773664
 10
9.213130389706867
 20
13.442767333393572
 10
9.215371586790837
 20
13.412840586403188
 10
9.214223003441345
 20
13.382917830976258
 10
9.215223350651385
 20
13.352959919086604
 10
9.216383689374565
 20
13.322982795056374
 10
9.216383689374565
 20
13.293038897502143
 10
9.214891392934751
 20
13.263193429270867
 10
9.21318677602356
 20
13.233205251680305
 10
9.210635728343616
 20
13.203223500068269
 10
9.20770311351555
 20
13.173298156704595
 10
9.20483061338762
 20
13.143313246932465
 10
9.20190194625967
 20
13.113334170983842
 10
9.20190194625967
 20
13.08334312034486
 10
9.204656870719068
 20
13.053389134223659
 10
9.207097229274021
 20
13.023455127851392
 10
9.207097229274021
 20
12.993473156922683
 10
9.207763820370705
 20
12.96348138253868
 10
9.211261241427401
 20
12.933588322589307
 10
9.211261241427401
 20
12.90359560514361
 10
9.21213484553197
 20
12.873607054714702
 10
9.215432710347674
 20
12.843655108238561
 10
9.216418692315616
 20
12.813677326258313
 10
9.219684273717016
 20
12.783663927250327
 10
9.223245801037304
 20
12.753591049560555
 10
9.223998342338238
 20
12.723601972771633
 10
9.22569146705575
 20
12.693554777064298
 10
9.22325534131259
 20
12.663514467900505
 10
9.22111016106817
 20
12.63336625493347
 10
9.218912103573828
 20
12.603291600778645
 10
9.216978191080752
 20
12.573178653932668
 10
9.21529013257839
 20
12.543024343962118
 10
9.21477037399445
 20
12.51294725539222
 10
9.215975255933966
 20
12.482968925120288
 10
9.219316260339298
 20
12.453080229572713
 10
9.2233899798183
 20
12.423214518412495
 10
9.2233899798183
 20
12.39322824887699
 10
9.222876954256227
 20
12.363134492239926
 10
9.222876954256227
 20
12.333115083955093
 10
9.220961595953709
 20
12.302990184350424
 10
9.218951843755022
 20
12.272904630156939
 10
9.216361362937228
 20
12.242953166177479
 10
9.213799678398631
 20
12.212928669745827
 10
9.21173272841156
 20
12.182872240806548
 10
9.210275478776131
 20
12.152874742257373
 10
9.210275478776131
 20
12.122876827006518
 10
9.211714415469343
 20
12.092858383715049
 10
9.212706647962474
 20
12.062834128531737
 10
9.214275003424573
 20
12.032848253766243
 10
9.216632153233693
 20
12.002878586502904
 10
9.218079862593836
 20
11.972903831092745
 10
9.218669758649883
 20
11.942906003568561
 10
9.218669758649883
 20
11.912907276846015
 10
9.218669758649883
 20
11.882915941095359
 10
9.220552570358093
 20
11.852922916606317
 10
9.220552570358093
 20
11.822924518858784
 10
9.220552570358093
 20
11.792927064172943
 10
9.220552570358093
 20
11.762931078908814
 10
9.221778747946582
 20
11.732962069595494
 10
9.223263083191156
 20
11.703021330201356
 10
9.223263083191156
 20
11.673022164845465
 10
9.223263083191156
 20
11.643026333103005
 10
9.224755708605981
 20
11.61309820441758
 10
9.224755708605981
 20
11.583109346945331
 10
9.224755708605981
 20
11.553110971129463
 10
9.224755708605981
 20
11.523113033946942
 10
9.225357710942394
 20
11.493120184911241
 10
9.2266332786457
 20
11.46316461970999
 10
9.230325935404926
 20
11.43321841933069
 10
9.231780619035277
 20
11.403230877758482
 10
9.235475973389583
 20
11.373259039260077
 10
9.235475973389583
 20
11.343260773102545
 10
9.23277339982009
 20
11.313309177533082
 10
9.23277339982009
 20
11.28338881265789
 10
9.23382337839329
 20
11.253418092674519
 10
9.235156275474983
 20
11.223446648946126
 10
9.235907062242529
 20
11.19346441483741
 10
9.23359485041976
 20
11.16350031821757
 10
9.23440906356921
 20
11.13351654889214
 10
8.622326318768021
 20
15.918168284466251
 10
8.6523272386573
 20
15.917260708208996
 10
8.682309297312678
 20
15.916661842101012
 10
8.712312695480364
 20
15.916661842101012
 10
8.742293438235702
 20
15.915825894669242
 10
8.772296353906706
 20
15.915825894669242
 10
8.802298260721013
 20
15.915825894669242
 10
8.832282424816455
 20
15.915825894669242
 10
8.862293148161028
 20
15.915825894669242
 10
8.89228755434511
 20
15.915825894669242
 10
8.922290689332787
 20
15.915825894669242
 10
8.95228893355865
 20
15.915825894669242
 10
8.982287484827857
 20
15.915825894669242
 10
9.012289698685509
 20
15.915825894669242
 10
9.042286495421328
 20
15.915825894669242
 10
9.072296341499207
 20
15.915825894669242
 10
9.10236831999062
 20
15.917343237073142
 10
9.132437469296946
 20
15.919791710345004
 10
9.1624942491429
 20
15.922183928890178
 10
9.19252214498299
 20
15.922987658702647
 10
9.222524402703973
 20
15.92383621684313
 10
9.252520475694773
 20
15.92383621684313
 10
9.282502161511806
 20
15.922939935394547
 10
9.312456016043004
 20
15.922939935394547
 10
9.342452659257154
 20
15.922939935394547
 10
9.37245243869973
 20
15.922939935394547
 10
9.402417807356274
 20
15.922091706229075
 10
9.432403462805093
 20
15.922091706229075
 10
9.462397474219163
 20
15.922091706229075
 10
9.492392713806604
 20
15.922091706229075
 10
9.52237060544519
 20
15.922091706229075
 10
9.5523792233497
 20
15.922091706229075
 10
9.582372708403755
 20
15.922091706229075
 10
4.937545462526984
 20
10.04839973818714
 10
4.9593482813067356
 20
10.069007873252682
 10
4.980823375181644
 20
10.089950268859926
 10
5.001813011600309
 20
10.111362725892954
 10
5.023048611668025
 20
10.132532684480367
 10
5.044351805134439
 20
10.153651169444567
 10
5.064522008666828
 20
10.175886787747315
 10
5.085620053317081
 20
10.19721031186934
 10
5.106851574094676
 20
10.218400644975697
 10
5.1276031641961906
 20
10.240065842542982
 10
5.147724372383775
 20
10.262351837885575
 10
5.1675590433377545
 20
10.284941959658969
 10
5.188625352865388
 20
10.306303951925482
 10
5.208713181055304
 20
10.328607887371948
 10
5.229582237167012
 20
10.350149894763867
 10
5.250678044787199
 20
10.371484845284568
 10
5.27170033745851
 20
10.39287594087362
 10
5.292851325153686
 20
10.414144723554001
 10
5.3140866181780595
 20
10.435334091666997
 10
5.3352409394866696
 20
10.456598466082244
 10
5.356370828917878
 20
10.477884048419796
 10
5.37750102539243
 20
10.499176626959224
 10
5.398648021524153
 20
10.520451791754796
 10
5.41833963221217
 20
10.543139377857784
 10
5.4386982726302175
 20
10.565176207527895
 10
5.45844567747991
 20
10.587786857341905
 10
5.479276418968802
 20
10.609364766873236
 10
5.5003448120048315
 20
10.630713644002688
 10
5.521505800540307
 20
10.651979553634648
 10
5.542691703449865
 20
10.673210920890572
 10
5.563836572209858
 20
10.694484572401098
 10
5.585027958036247
 20
10.715725918565655
 10
5.606152737388969
 20
10.737022071966855
 10
5.627280916150127
 20
10.758313488127916
 10
5.648327991605516
 20
10.779690459723213
 10
5.669355679466989
 20
10.801080656113905
 10
5.690464865404243
 20
10.822397666530733
 10
5.711570673864729
 20
10.843714545357557
 10
5.7320183349204505
 20
10.865635839004199
 10
5.75303433320324
 20
10.887041782332032
 10
5.773931198669118
 20
10.908546418162828
 10
5.794998560916782
 20
10.929897883229025
 10
5.816010348319445
 20
10.951311064007076
 10
5.836999107471415
 20
10.972746088725781
 10
5.858054955593735
 20
10.994111041767383
 10
5.879118545594619
 20
11.015466015900351
 10
5.9001495890011935
 20
11.03685222072759
 10
5.921230197975922
 20
11.058186337844933
 10
5.942317079407506
 20
11.079522472675668
 10
5.963445894187017
 20
11.100817683015176
 10
5.9845649932379015
 20
11.122123946915014
 10
6.005758747684363
 20
11.143355840530955
 10
6.026960441394394
 20
11.164581417826703
 10
6.048051950407784
 20
11.185910622250564
 10
6.069101460278246
 20
11.207284786592442
 10
6.090088333306827
 20
11.228717683939418
 10
6.111097971406092
 20
11.250132049027503
 10
6.132208824150062
 20
11.271447568090954
 10
6.152808712908689
 20
11.293241438750435
 10
6.172971481605854
 20
11.315468328249588
 10
6.1941002305903625
 20
11.33674053227007
 10
6.215414938182121
 20
11.35785230614407
 10
6.2358054014494595
 20
11.379880648258926
 10
6.256053177289178
 20
11.402029329432398
 10
6.27615201517609
 20
11.424319404065114
 10
6.2955119532591475
 20
11.447250212358739
 10
6.315601799162456
 20
11.469513376835648
 10
6.336752567540959
 20
11.490796546689793
 10
6.35783701455747
 20
11.512127439852039
 10
6.378923018722361
 20
11.533458661989293
 10
6.399938797688478
 20
11.554865745763827
 10
6.420899550101273
 20
11.576326211216632
 10
6.4419167765574326
 20
11.597729610471053
 10
6.46272082720719
 20
11.619339277056671
 10
6.482741983128436
 20
11.641674574787412
 10
6.503723285513517
 20
11.663108963487765
 10
6.52474645545152
 20
11.684509182650427
 10
6.546038310245928
 20
11.70565034495864
 10
6.566963664947661
 20
11.727151537517667
 10
6.588403712018184
 20
11.748135712951166
 10
6.609492523436494
 20
11.769472659253594
 10
6.630619693340954
 20
11.79075475445604
 10
6.6517568202223805
 20
11.812038494533535
 10
6.672925660294759
 20
11.833296333311921
 10
6.694176086169588
 20
11.854469910624442
 10
6.715422981045977
 20
11.875644430998658
 10
6.736697115053185
 20
11.89679274303042
 10
6.757960217431728
 20
11.917949367164098
 10
6.779102432459974
 20
11.939233940644954
 10
6.800230698947801
 20
11.960523602272627
 10
6.82127211603302
 20
11.98190682439311
 10
6.842301975129558
 20
12.003288927998561
 10
6.863303981008594
 20
12.024714719485322
 10
6.883783070143592
 20
12.046632306680188
 10
6.904791896771165
 20
12.06804366712985
 10
6.925887397348008
 20
12.089348834446321
 10
6.947003316307132
 20
12.110661348871348
 10
6.9681638881409285
 20
12.131931864153447
 10
6.989257721911056
 20
12.15325769110054
 10
7.010341620635883
 20
12.17459641386802
 10
4.9439473600825705
 20
13.672057256909277
 10
4.9737617072779114
 20
13.675400849251353
 10
5.003555767680978
 20
13.678897524631362
 10
5.033366518082878
 20
13.682276777864509
 10
5.063156323742482
 20
13.685826527879442
 10
5.092938365591854
 20
13.689452665891672
 10
5.122700778598969
 20
13.693204428494338
 10
5.152433781240201
 20
13.697180332737071
 10
5.182152637956008
 20
13.701281532595232
 10
5.211833662545679
 20
13.705588802399582
 10
5.241479815784304
 20
13.710115542398855
 10
5.271095440142011
 20
13.71490721693942
 10
5.3005555031833795
 20
13.720458736026133
 10
5.3299118294383
 20
13.726503388652658
 10
5.359138342154322
 20
13.733122782553108
 10
5.388280505677811
 20
13.740080582080388
 10
5.417302286279352
 20
13.747358825198958
 10
5.446220373957777
 20
13.755217621483297
 10
5.47496138535422
 20
13.76364091695292
 10
5.503593198979049
 20
13.772436063842042
 10
5.532129149286
 20
13.781508295416153
 10
5.560554563989631
 20
13.7909402721294
 10
5.588857687716256
 20
13.800743617765468
 10
5.61700470183486
 20
13.810905282982294
 10
5.645059624882365
 20
13.82135918766623
 10
5.672918961320663
 20
13.832347917989562
 10
5.70064458038328
 20
13.84367169839462
 10
5.728212993254507
 20
13.85536340445073
 10
5.7556088477672205
 20
13.86745696444724
 10
5.782875809871062
 20
13.879839210980752
 10
5.809973985863169
 20
13.892519004444868
 10
5.837021521635422
 20
13.905370062299125
 10
5.863969728886358
 20
13.9184248214795
 10
5.890757571785812
 20
13.93180138401454
 10
5.9173872873638516
 20
13.945491700982334
 10
5.943886838496314
 20
13.959422235502341
 10
5.9701658886454885
 20
13.973771160439915
 10
5.996206541570837
 20
13.988548432772019
 10
6.021964385646027
 20
14.00380587702854
 10
6.047551952256102
 20
14.019351086692039
 10
6.072900310170661
 20
14.035297777457593
 10
6.098089466112105
 20
14.051488633475481
 10
6.123076653329152
 20
14.067985260799217
 10
6.148043093188908
 20
14.084529830747726
 10
6.172741462278947
 20
14.101462810524566
 10
6.1972541798050775
 20
14.118676581438173
 10
6.2213839704197085
 20
14.13640962843904
 10
6.244998322988861
 20
14.15481262208169
 10
6.268262646147502
 20
14.173646967757298
 10
6.291654699336645
 20
14.19232858130165
 10
6.3145737522565835
 20
14.211606451085576
 10
6.337475720407676
 20
14.230900199396645
 10
6.360351853054659
 20
14.250228424288748
 10
6.382852998053714
 20
14.269986071227082
 10
6.4049714793212775
 20
14.290160617229601
 10
6.427037609698936
 20
14.310397142123982
 10
6.448953705540422
 20
14.330796663169924
 10
6.47036083317829
 20
14.35172208366666
 10
6.491783992864973
 20
14.372638972744806
 10
6.512824971316846
 20
14.393938262374435
 10
6.5336877111083655
 20
14.41541618543443
 10
6.55432984025826
 20
14.437101055707306
 10
6.574674532135889
 20
14.45907250707712
 10
6.59469171842535
 20
14.48133852267078
 10
6.614225706220299
 20
14.504055299822978
 10
6.633788665747787
 20
14.526736679264113
 10
6.653477644635725
 20
14.549301711210088
 10
6.672987770776624
 20
14.572011777272083
 10
6.692292791964698
 20
14.594899292454407
 10
6.71155445424647
 20
14.61783356595147
 10
6.7305353911864785
 20
14.640987507028463
 10
6.749045849999025
 20
14.664516084846706
 10
6.7667377093286545
 20
14.688675636733898
 10
6.784342675392342
 20
14.712901246803073
 10
6.801927924887103
 20
14.737137142824224
 10
6.818989073327792
 20
14.761737915994665
 10
6.835674905145543
 20
14.786591890264377
 10
6.852227260835953
 20
14.811540740926938
 10
6.868290386823338
 20
14.836808894734089
 10
6.883700782527788
 20
14.86247841998496
 10
6.899042334728503
 20
14.888192049818821
 10
6.914165403659323
 20
14.914015118672635
 10
6.92907327907035
 20
14.940001359131351
 10
6.943357045024299
 20
14.966340765229004
 10
6.957400505699365
 20
14.992791123631656
 10
6.971223991751159
 20
15.019362851881287
 10
6.984537456879303
 20
15.046196839008793
 10
6.997388887571905
 20
15.073262314884918
 10
7.01004670550536
 20
15.100411306550217
 10
7.022024641751731
 20
15.127889426747068
 10
7.0340142675767865
 20
15.155355331005218
 10
7.045911911989078
 20
15.182850843014256
 10
7.05772290438377
 20
15.210385744297811
 10
7.069071533367909
 20
15.238111736198771
 10
7.080018659318323
 20
15.266002654238019
 10
7.0907502847056
 20
15.293979193506503
 10
7.10093890394157
 20
15.322151494837533
 10
7.110789007892375
 20
15.350452776304103
 10
7.120419663579922
 20
15.378820422996
 10
7.129447944092712
 20
15.407391376244002
 10
10.96213780703554
 20
14.859197552211434
 10
10.96539036102655
 20
14.829303834312041
 10
10.966483873959389
 20
14.799323288941709
 10
10.966483873959389
 20
14.769386475316022
 10
10.964911088300491
 20
14.739358557544268
 10
10.965493395999644
 20
14.709371454605405
 10
10.964989055377831
 20
14.67935057689886
 10
10.965597439829436
 20
14.649356170714778
 10
10.964597794432748
 20
14.619418962319081
 10
10.963057007076479
 20
14.589504014565717
 10
10.962426866410889
 20
14.55954189179594
 10
10.959639899785527
 20
14.529557552247159
 10
10.956737397136697
 20
14.499569747494942
 10
10.956737397136697
 20
14.469556743256968
 10
10.956737397136697
 20
14.439557863012752
 10
10.95728239906973
 20
14.409571878588922
 10
10.960458411541774
 20
14.379628134556361
 10
10.964034764669174
 20
14.349783719045117
 10
10.964034764669174
 20
14.319784860732566
 10
10.964034764669174
 20
14.289830414046351
 10
10.964034764669174
 20
14.259832104025486
 10
10.964034764669174
 20
14.22983403525296
 10
10.964034764669174
 20
14.199839563273876
 10
10.964034764669174
 20
14.169844323686435
 10
10.961439765927912
 20
14.139964422737458
 10
10.961439765927912
 20
14.109988241768924
 10
10.964046322657854
 20
14.080082834290847
 10
10.967307693179128
 20
14.050128124424624
 10
10.967307693179128
 20
14.02013152507381
 10
10.967307693179128
 20
13.99012275364763
 10
10.964744078653808
 20
13.960097884377632
 10
10.964744078653808
 20
13.930098346183396
 10
10.967491831457991
 20
13.89999450097936
 10
10.970530573624247
 20
13.869916820254444
 10
10.970530573624247
 20
13.839919497158608
 10
10.971193567927491
 20
13.80992890708464
 10
10.97276707733141
 20
13.779929061847062
 10
10.97276707733141
 20
13.749541947227852
 10
10.974528168285964
 20
13.719594343221843
 10
10.977489645188232
 20
13.689709463784382
 10
10.982130758832607
 20
13.660061227037362
 10
10.985596291245013
 20
13.630271114334416
 10
10.989384920980454
 20
13.60009954414168
 10
10.995127793864583
 20
13.570570067373227
 10
11.001792783701402
 20
13.54084136333879
 10
11.010210683980864
 20
13.511560131112791
 10
11.021326683769683
 20
13.483695443347665
 10
11.034905675594134
 20
13.457337329537784
 10
11.05072854016597
 20
13.432462344730775
 10
11.067698299348915
 20
13.408287023974776
 10
11.085593574892988
 20
13.384695282954636
 10
11.104330872940679
 20
13.361705982904255
 10
11.12381465914912
 20
13.339280502157472
 10
11.143968852564363
 20
13.317392720098502
 10
11.164699541786916
 20
13.295978640122092
 10
11.185959354415361
 20
13.275046245355147
 10
11.207703747233356
 20
13.254588429937455
 10
11.22991431957202
 20
13.234630853919784
 10
11.252662568666828
 20
13.215326117843384
 10
11.275949876212827
 20
13.196713018827756
 10
11.299695643332592
 20
13.178632376831452
 10
11.323963932426382
 20
13.161360947564447
 10
11.348678333565237
 20
13.144658535406197
 10
11.373967848816362
 20
13.129128392798151
 10
11.399692269030547
 20
13.114141870428098
 10
11.425933311600247
 20
13.10036163362427
 10
11.452707710387632
 20
13.087659184747809
 10
11.480013206430963
 20
13.076572419871534
 10
11.50783229825972
 20
13.066763284275293
 10
11.536078487377969
 20
13.058023821889508
 10
11.5646792896252
 20
13.050368748862955
 10
11.593567901142741
 20
13.04390928068064
 10
11.622702871079348
 20
13.038573481473737
 10
11.652031695023442
 20
13.034326633412869
 10
11.681513536210465
 20
13.03113605831372
 10
11.71110924661424
 20
13.028928021910746
 10
11.740797837629138
 20
13.027579641071918
 10
11.770563123684674
 20
13.026929082024049
 10
11.800395345188885
 20
13.026929082024049
 10
11.83021442962437
 20
13.027558016447937
 10
11.86004437023518
 20
13.02880588445541
 10
11.889848102503535
 20
13.030662136914488
 10
11.919653984075289
 20
13.03296597084034
 10
11.949526187009035
 20
13.035442538578046
 10
11.979387687289126
 20
13.038242510682132
 10
12.009270834124866
 20
13.041189753932304
 10
12.039263069073884
 20
13.043938625251522
 10
12.069181525894018
 20
13.047016997940634
 10
12.099091824133907
 20
13.050217157178404
 10
12.12910952174869
 20
13.053147710429743
 10
12.159051160341187
 20
13.056313546608148
 10
12.188957181905948
 20
13.05964847594163
 10
12.218820568309429
 20
13.063064420854214
 10
12.248733015852718
 20
13.066543199993683
 10
12.278719833679904
 20
13.069797464654744
 10
12.308700576435243
 20
13.073038241340399
 10
12.338624384582205
 20
13.076437583980818
 10
12.368601903382448
 20
13.079745844406833
 10
12.39857391733419
 20
13.083037129722339
 10
12.428616836366396
 20
13.086076244726938
 10
10.728018727759814
 20
10.961442200342985
 10
10.732499740232715
 20
10.93165026731165
 10
10.737285844129778
 20
10.90193496352595
 10
10.742507796051594
 20
10.872333879863678
 10
10.748310169549177
 20
10.842879760304156
 10
10.754782643210216
 20
10.813607410403424
 10
10.7619226071663
 20
10.78448636707557
 10
10.768795794321038
 20
10.755308016300994
 10
10.775907137451263
 20
10.72620820282711
 10
10.784084776315176
 20
10.697432780644634
 10
10.793531600767203
 20
10.669100882570477
 10
10.803991405069649
 20
10.641141406139173
 10
10.815858520601026
 20
10.613785445329324
 10
10.828515154224444
 20
10.586814933572718
 10
10.84195200691296
 20
10.560228335652642
 10
10.85619526507736
 20
10.534071664207142
 10
10.871236923659069
 20
10.508396590244438
 10
10.887051125222312
 20
10.483186511492365
 10
10.903611485971297
 20
10.458443972024334
 10
10.920892038811907
 20
10.434178446320626
 10
10.938861465323207
 20
10.410415945338691
 10
10.957495487149462
 20
10.387151885360058
 10
10.976750306751029
 20
10.364382932771294
 10
10.996589407901808
 20
10.342100687743812
 10
11.016979498330802
 20
10.320315962589603
 10
11.037903559064162
 20
10.299012264694841
 10
11.05934389124636
 20
10.278224684727245
 10
11.081269044866453
 20
10.257924316749282
 10
11.103680006849466
 20
10.238173885329498
 10
11.12656416648669
 20
10.218980540191446
 10
11.149911040441143
 20
10.200345114738479
 10
11.173727054691351
 20
10.182322372343913
 10
11.197970297821056
 20
10.164879854140104
 10
11.222645397412062
 20
10.148056817811565
 10
11.247754239587763
 20
10.131906557309897
 10
11.2732439690299
 20
10.116398148984171
 10
11.299193780989189
 20
10.101699589406099
 10
11.325506583974375
 20
10.087654988284331
 10
11.352162705279873
 20
10.074221008644235
 10
11.379163373079052
 20
10.061522419741223
 10
11.406483409817822
 20
10.049554966831833
 10
11.434090225038537
 20
10.03818857319716
 10
11.46196232570722
 20
10.027507631893073
 10
11.490094119248699
 20
10.017566072889522
 10
11.518469727135834
 20
10.00841545753639
 10
11.54708515780517
 20
10.00019926280132
 10
11.575923589667873
 20
9.992935165608175
 10
11.604979474012104
 20
9.986662379778133
 10
11.634229058842152
 20
9.981431106897702
 10
11.663625783228285
 20
9.977223450726344
 10
11.693146268013136
 20
9.974039718307402
 10
11.722762879295871
 20
9.971858723650238
 10
11.75243736824868
 20
9.970690730775162
 10
11.782129863100362
 20
9.970690730775162
 10
11.811806961921583
 20
9.97157492787505
 10
11.841425919892723
 20
9.973515507594993
 10
11.870939978699047
 20
9.976554403282918
 10
11.9002851417353
 20
9.980750018968916
 10
11.929454237346263
 20
9.986032414565882
 10
11.958348222122298
 20
9.992516862917281
 10
11.986978697915422
 20
10.0001209448173
 10
12.015346936762336
 20
10.008738883834436
 10
12.043459540094906
 20
10.018242730621509
 10
12.071356555137669
 20
10.028494052494363
 10
12.099011883206508
 20
10.039467408718899
 10
12.126448991185459
 20
10.051063207593792
 10
12.153620068039755
 20
10.063301121824637
 10
12.180500462575322
 20
10.07617713791631
 10
12.207097653490717
 20
10.089654344872706
 10
12.233405324465751
 20
10.103707609003067
 10
12.25937783570072
 20
10.118356975851329
 10
12.285013081755562
 20
10.13359468160726
 10
12.310295688531479
 20
10.149402895825322
 10
12.335160365454845
 20
10.165837303008857
 10
12.35958333859828
 20
10.182898078611203
 10
12.38353578975092
 20
10.200596605167698
 10
12.407004362527362
 20
10.218917574374554
 10
12.42999835595455
 20
10.237834295392634
 10
12.452485705934858
 20
10.257351264213739
 10
12.474470425963405
 20
10.277436285150237
 10
12.49591808332249
 20
10.298089709108805
 10
12.5167904949793
 20
10.319309255196039
 10
12.537103429802642
 20
10.341075667408031
 10
12.556879367751526
 20
10.363339906536638
 10
12.576070585517847
 20
10.386110196957109
 10
12.594621288939937
 20
10.409391056592913
 10
12.612509524418797
 20
10.43316132138508
 10
12.629722286475705
 20
10.4574349618057
 10
12.646255101050528
 20
10.48218004534714
 10
12.662098471731314
 20
10.507375780788783
 10
12.67723404171251
 20
10.53300104793499
 10
12.691663587459171
 20
10.55902751107158
 10
12.705437069309463
 20
10.585422426219234
 10
12.718579072662457
 20
10.612160681618866
 10
12.731103502195241
 20
10.63920663831107
 10
12.743024152926559
 20
10.666540228820246
 10
12.754319180915754
 20
10.694150355722728
 10
12.765050937893035
 20
10.72200129233244
 10
12.775213085606543
 20
10.75006544861189
 10
12.784803628274553
 20
10.77834065332601
 10
12.79384372995603
 20
10.806812957934383
 10
12.80222761421947
 20
10.83545347843114
 10
12.809930805324136
 20
10.864285725563654
 10
12.816882858754576
 20
10.89328590347288
 10
12.823089564470967
 20
10.922447959018633
 10
12.82849907601175
 20
10.951758755132186
 10
12.833090996926316
 20
10.981197522524582
 10
12.83683089449696
 20
11.010745158713581
 10
12.839711794453475
 20
11.04039536931066
 10
12.841704966311664
 20
11.070101790771094
 10
12.842779661873937
 20
11.099846833897686
 10
12.842779661873937
 20
11.129609948718157
 10
12.842038854015025
 20
11.159369554471855
 10
12.840431306663415
 20
11.18910286415643
 10
12.838008076740644
 20
11.218796060821466
 10
12.834730674170556
 20
11.2484092507641
 10
12.830581860662631
 20
11.277912957823446
 10
12.825633111520684
 20
11.30730770835952
 10
12.819978140759195
 20
11.336599511649169
 10
12.813546459999383
 20
11.365725730850514
 10
12.806397328606357
 20
11.394699459168944
 10
12.79855778832593
 20
11.42349775608044
 10
12.790065408104233
 20
11.452134833305427
 10
12.78095819552074
 20
11.480590601436637
 10
12.77122095192999
 20
11.508848019568557
 10
12.760889360154726
 20
11.53690656134117
 10
12.749947059171124
 20
11.564733219595153
 10
12.738378850333724
 20
11.592298956802967
 10
12.726214341393415
 20
11.619614914251615
 10
12.713436886214701
 20
11.646640167449865
 10
12.70004666025092
 20
11.673365483165774
 10
12.686053269572357
 20
11.699781233397388
 10
12.671460574152462
 20
11.72586761384911
 10
12.656218898764747
 20
11.751558105773942
 10
12.640342564787971
 20
11.776864289092234
 10
12.623832339830493
 20
11.801753814594681
 10
12.606667739715032
 20
11.826186788578418
 10
12.588891838236211
 20
11.850180953762308
 10
12.570495972385439
 20
11.87370192129199
 10
12.55141123286398
 20
11.896634199007327
 10
12.531657533625765
 20
11.918978532585005
 10
12.511274000765304
 20
11.940745471157012
 10
12.490288619090101
 20
11.961940914341856
 10
12.468759617176907
 20
11.982613725894339
 10
12.446683902660627
 20
12.002693285845673
 10
12.424092377260525
 20
12.022204530501607
 10
12.400908981954313
 20
12.040956500834739
 10
12.377203196264082
 20
12.059056333039955
 10
12.352994868348759
 20
12.076476590601427
 10
12.328302267287226
 20
12.093195034808492
 10
12.303107847745624
 20
12.10911562688993
 10
12.277470298865714
 20
12.124264290076518
 10
12.251363258783371
 20
12.138631198981297
 10
12.224844078808653
 20
12.152211024209109
 10
12.197915719716645
 20
12.164930821034424
 10
12.17060967538163
 20
12.176806862754402
 10
12.142954588561132
 20
12.187847900104304
 10
12.114973421710841
 20
12.198075272596437
 10
12.086706770346979
 20
12.207470645356919
 10
12.058176259093525
 20
12.216067858948431
 10
12.029423887093408
 20
12.223886849256573
 10
12.000455882940148
 20
12.230931717503134
 10
11.971309903306546
 20
12.237186650955973
 10
11.941998975602989
 20
12.242804644926352
 10
11.912562971600675
 20
12.24779291493282
 10
11.883014063374972
 20
12.252020748238117
 10
11.853373590438185
 20
12.255563611709512
 10
11.823653395890672
 20
12.258425299525449
 10
11.793877648429822
 20
12.260611272671095
 10
11.764062796806131
 20
12.26215736749086
 10
11.734190878984062
 20
12.263160521954317
 10
11.704283256407585
 20
12.263691685005268
 10
11.674347363911927
 20
12.263691685005268
 10
11.64441120823626
 20
12.263691685005268
 10
11.614486215779262
 20
12.262865124327114
 10
11.584584185777956
 20
12.261533915983803
 10
11.554699744973842
 20
12.259742844440016
 10
11.524827849083438
 20
12.257545028194015
 10
11.494961041339856
 20
12.255023939171638
 10
11.465114695841885
 20
12.252151658360381
 10
11.435306884283406
 20
12.248911715078084
 10
11.405549822603119
 20
12.24528684910256
 10
11.37587649602868
 20
12.241187294119449
 10
11.346293878830297
 20
12.236579867516085
 10
11.316800698971267
 20
12.23149196194496
 10
11.287366142458996
 20
12.225996083498249
 10
11.258031550486397
 20
12.220028257502364
 10
11.22879556329009
 20
12.21361184118301
 10
11.199657632578395
 20
12.206749707588601
 10
11.170609577839398
 20
12.199461332039728
 10
11.141697938071166
 20
12.19171537418378
 10
11.11293161753063
 20
12.183483213194897
 10
11.084319915244738
 20
12.174763664763043
 10
11.055884762880815
 20
12.165519554712104
 10
11.02766125110658
 20
12.155704278249013
 10
10.999639993168419
 20
12.14535290410982
 10
10.971874765514613
 20
12.134379306636944
 10
10.944423467746903
 20
12.122719686610132
 10
10.917257193927751
 20
12.110419596102421
 10
10.890436190347302
 20
12.09742933795565
 10
10.863995240629931
 20
12.083726870844156
  0
ENDSEC
  0
SECTION
  2
OBJECTS
  0
DICTIONARY
  5
A
330
0
100
AcDbDictionary
281
1
  3
ACAD_COLOR
350
B
  3
ACAD_GROUP
350
C
  3
ACAD_LAYOUT
350
D
  3
ACAD_MATERIAL
350
E
  3
ACAD_MLEADERSTYLE
350
F
  3
ACAD_MLINESTYLE
350
10
  3
ACAD_PLOTSETTINGS
350
11
  3
ACAD_PLOTSTYLENAME
350
12
  3
ACAD_SCALELIST
350
14
  3
ACAD_TABLESTYLE
350
15
  3
ACAD_VISUALSTYLE
350
16
  3
EZDXF_META
350
2D
  0
DICTIONARY
  5
B
330
A
100
AcDbDictionary
281
1
  0
DICTIONARY
  5
C
330
A
100
AcDbDictionary
281
1
  0
DICTIONARY
  5
D
330
A
100
AcDbDictionary
281
1
  3
Model
350
1A
  3
Layout1
350
1E
  0
DICTIONARY
  5
E
330
A
100
AcDbDictionary
281
1
  3
ByBlock
350
1F
  3
ByLayer
350
20
  3
Global
350
21
  0
DICTIONARY
  5
F
330
A
100
AcDbDictionary
281
1
  3
Standard
350
2C
  0
DICTIONARY
  5
10
330
A
100
AcDbDictionary
281
1
  3
Standard
350
22
  0
DICTIONARY
  5
11
330
A
100
AcDbDictionary
281
1
  0
ACDBDICTIONARYWDFLT
  5
12
330
A
100
AcDbDictionary
281
1
  3
Normal
350
13
100
AcDbDictionaryWithDefault
340
13
  0
ACDBPLACEHOLDER
  5
13
330
12
  0
DICTIONARY
  5
14
330
A
100
AcDbDictionary
281
1
  0
DICTIONARY
  5
15
330
A
100
AcDbDictionary
281
1
  0
DICTIONARY
  5
16
330
A
100
AcDbDictionary
281
1
  0
LAYOUT
  5
1A
330
D
100
AcDbPlotSettings
  1

  4
A3
  6

 40
7.5
 41
20.0
 42
7.5
 43
20.0
 44
420.0
 45
297.0
 46
0.0
 47
0.0
 48
0.0
 49
0.0
140
0.0
141
0.0
142
1.0
143
1.0
 70
1024
 72
1
 73
0
 74
5
  7

 75
16
 76
0
 77
2
 78
300
147
1.0
148
0.0
149
0.0
100
AcDbLayout
  1
Model
 70
1
 71
0
 10
0.0
 20
0.0
 11
420.0
 21
297.0
 12
0.0
 22
0.0
 32
0.0
 14
1e+20
 24
1e+20
 34
1e+20
 15
-1e+20
 25
-1e+20
 35
-1e+20
146
0.0
 13
0.0
 23
0.0
 33
0.0
 16
1.0
 26
0.0
 36
0.0
 17
0.0
 27
1.0
 37
0.0
 76
1
330
17
  0
LAYOUT
  5
1E
330
D
100
AcDbPlotSettings
  1

  4
A3
  6

 40
7.5
 41
20.0
 42
7.5
 43
20.0
 44
420.0
 45
297.0
 46
0.0
 47
0.0
 48
0.0
 49
0.0
140
0.0
141
0.0
142
1.0
143
1.0
 70
0
 72
1
 73
0
 74
5
  7

 75
16
 76
0
 77
2
 78
300
147
1.0
148
0.0
149
0.0
100
AcDbLayout
  1
Layout1
 70
1
 71
1
 10
0.0
 20
0.0
 11
420.0
 21
297.0
 12
0.0
 22
0.0
 32
0.0
 14
1e+20
 24
1e+20
 34
1e+20
 15
-1e+20
 25
-1e+20
 35
-1e+20
146
0.0
 13
0.0
 23
0.0
 33
0.0
 16
1.0
 26
0.0
 36
0.0
 17
0.0
 27
1.0
 37
0.0
 76
1
330
1B
  0
MATERIAL
  5
1F
102
{ACAD_REACTORS
330
E
102
}
330
E
100
AcDbMaterial
  1
ByBlock
  2

 70
0
 40
1.0
 71
1
 41
1.0
 91
-1023410177
 42
1.0
 72
1
  3

 73
1
 74
1
 75
1
 44
0.5
 73
0
 45
1.0
 46
1.0
 77
1
  4

 78
1
 79
1
170
1
 48
1.0
171
1
  6

172
1
173
1
174
1
140
1.0
141
1.0
175
1
  7

176
1
177
1
178
1
143
1.0
179
1
  8

270
1
271
1
272
1
145
1.0
146
1.0
273
1
  9

274
1
275
1
276
1
 42
1.0
 72
1
  3

 73
1
 74
1
 75
1
 94
63
  0
MATERIAL
  5
20
102
{ACAD_REACTORS
330
E
102
}
330
E
100
AcDbMaterial
  1
ByLayer
  2

 70
0
 40
1.0
 71
1
 41
1.0
 91
-1023410177
 42
1.0
 72
1
  3

 73
1
 74
1
 75
1
 44
0.5
 73
0
 45
1.0
 46
1.0
 77
1
  4

 78
1
 79
1
170
1
 48
1.0
171
1
  6

172
1
173
1
174
1
140
1.0
141
1.0
175
1
  7

176
1
177
1
178
1
143
1.0
179
1
  8

270
1
271
1
272
1
145
1.0
146
1.0
273
1
  9

274
1
275
1
276
1
 42
1.0
 72
1
  3

 73
1
 74
1
 75
1
 94
63
  0
MATERIAL
  5
21
102
{ACAD_REACTORS
330
E
102
}
330
E
100
AcDbMaterial
  1
Global
  2

 70
0
 40
1.0
 71
1
 41
1.0
 91
-1023410177
 42
1.0
 72
1
  3

 73
1
 74
1
 75
1
 44
0.5
 73
0
 45
1.0
 46
1.0
 77
1
  4

 78
1
 79
1
170
1
 48
1.0
171
1
  6

172
1
173
1
174
1
140
1.0
141
1.0
175
1
  7

176
1
177
1
178
1
143
1.0
179
1
  8

270
1
271
1
272
1
145
1.0
146
1.0
273
1
  9

274
1
275
1
276
1
 42
1.0
 72
1
  3

 73
1
 74
1
 75
1
 94
63
  0
MLINESTYLE
  5
22
102
{ACAD_REACTORS
330
10
102
}
330
10
100
AcDbMlineStyle
  2
Standard
 70
0
  3

 62
256
 51
90.0
 52
90.0
 71
2
 49
0.5
 62
256
  6
BYLAYER
 49
-0.5
 62
256
  6
BYLAYER
  0
MLEADERSTYLE
  5
2C
102
{ACAD_REACTORS
330
F
102
}
330
F
100
AcDbMLeaderStyle
179
2
170
2
171
1
172
0
 90
2
 40
0.0
 41
0.0
173
1
 91
-1056964608
 92
-2
290
1
 42
2.0
291
1
 43
8.0
  3
Standard
 44
4.0
300

342
29
174
1
175
1
176
0
178
1
 93
-1056964608
 45
4.0
292
0
297
0
 46
4.0
 94
-1056964608
 47
1.0
 49
1.0
140
1.0
294
1
141
0.0
177
0
142
1.0
295
0
296
0
143
3.75
271
0
272
9
273
9
  0
DICTIONARY
  5
2D
330
A
100
AcDbDictionary
280
1
281
1
  3
CREATED_BY_EZDXF
350
2E
  3
WRITTEN_BY_EZDXF
350
33
  0
DICTIONARYVAR
  5
2E
330
2D
100
DictionaryVariables
280
0
  1
1.4.4 @ 2026-07-12T17:47:41.789291+00:00
  0
DICTIONARYVAR
  5
33
330
2D
100
DictionaryVariables
280
0
  1
1.4.4 @ 2026-07-12T17:47:41.796514+00:00
  0
ENDSEC
  0
EOF
