  0
SECTION
  2
HEADER
  9
$ACADVER
  1
AC1024
  9
$ACADMAINTVER
 70
6
  9
$DWGCODEPAGE
  3
ANSI_1252
  9
$LASTSAVEDBY
  1
ezdxf
  9
$INSBASE
 10
0.0
 20
0.0
 30
0.0
  9
$EXTMIN
 10
1e+20
 20
1e+20
 30
1e+20
  9
$EXTMAX
 10
-1e+20
 20
-1e+20
 30
-1e+20
  9
$LIMMIN
 10
0.0
 20
0.0
  9
$LIMMAX
 10
420.0
 20
297.0
  9
$ORTHOMODE
 70
0
  9
$REGENMODE
 70
1
  9
$FILLMODE
 70
1
  9
$QTEXTMODE
 70
0
  9
$MIRRTEXT
 70
1
  9
$LTSCALE
 40
1.0
  9
$ATTMODE
 70
1
  9
$TEXTSIZE
 40
2.5
  9
$TRACEWID
 40
1.0
  9
$TEXTSTYLE
  7
Standard
  9
$CLAYER
  8
0
  9
$CELTYPE
  6
ByLayer
  9
$CECOLOR
 62
256
  9
$CELTSCALE
 40
1.0
  9
$DISPSILH
 70
0
  9
$DIMSCALE
 40
1.0
  9
$DIMASZ
 40
2.5
  9
$DIMEXO
 40
0.625
  9
$DIMDLI
 40
3.75
  9
$DIMRND
 40
0.0
  9
$DIMDLE
 40
0.0
  9
$DIMEXE
 40
1.25
  9
$DIMTP
 40
0.0
  9
$DIMTM
 40
0.0
  9
$DIMTXT
 40
2.5
  9
$DIMCEN
 40
2.5
  9
$DIMTSZ
 40
0.0
  9
$DIMTOL
 70
0
  9
$DIMLIM
 70
0
  9
$DIMTIH
 70
0
  9
$DIMTOH
 70
0
  9
$DIMSE1
 70
0
  9
$DIMSE2
 70
0
  9
$DIMTAD
 70
1
  9
$DIMZIN
 70
8
  9
$DIMBLK
  1

  9
$DIMASO
 70
1
  9
$DIMSHO
 70
1
  9
$DIMPOST
  1

  9
$DIMAPOST
  1

  9
$DIMALT
 70
0
  9
$DIMALTD
 70
3
  9
$DIMALTF
 40
0.03937007874
  9
$DIMLFAC
 40
1.0
  9
$DIMTOFL
 70
1
  9
$DIMTVP
 40
0.0
  9
$DIMTIX
 70
0
  9
$DIMSOXD
 70
0
  9
$DIMSAH
 70
0
  9
$DIMBLK1
  1

  9
$DIMBLK2
  1

  9
$DIMSTYLE
  2
ISO-25
  9
$DIMCLRD
 70
0
  9
$DIMCLRE
 70
0
  9
$DIMCLRT
 70
0
  9
$DIMTFAC
 40
1.0
  9
$DIMGAP
 40
0.625
  9
$DIMJUST
 70
0
  9
$DIMSD1
 70
0
  9
$DIMSD2
 70
0
  9
$DIMTOLJ
 70
0
  9
$DIMTZIN
 70
8
  9
$DIMALTZ
 70
0
  9
$DIMALTTZ
 70
0
  9
$DIMUPT
 70
0
  9
$DIMDEC
 70
2
  9
$DIMTDEC
 70
2
  9
$DIMALTU
 70
2
  9
$DIMALTTD
 70
3
  9
$DIMTXSTY
  7
Standard
  9
$DIMAUNIT
 70
0
  9
$DIMADEC
 70
0
  9
$DIMALTRND
 40
0.0
  9
$DIMAZIN
 70
0
  9
$DIMDSEP
 70
44
  9
$DIMATFIT
 70
3
  9
$DIMFRAC
 70
0
  9
$DIMLDRBLK
  1

  9
$DIMLUNIT
 70
2
  9
$DIMLWD
 70
-2
  9
$DIMLWE
 70
-2
  9
$DIMTMOVE
 70
0
  9
$DIMFXL
 40
1.0
  9
$DIMFXLON
 70
0
  9
$DIMJOGANG
 40
0.785398163397
  9
$DIMTFILL
 70
0
  9
$DIMTFILLCLR
 70
0
  9
$DIMARCSYM
 70
0
  9
$DIMLTYPE
  6

  9
$DIMLTEX1
  6

  9
$DIMLTEX2
  6

  9
$DIMTXTDIRECTION
 70
0
  9
$LUNITS
 70
2
  9
$LUPREC
 70
4
  9
$SKETCHINC
 40
1.0
  9
$FILLETRAD
 40
10.0
  9
$AUNITS
 70
0
  9
$AUPREC
 70
2
  9
$MENU
  1
.
  9
$ELEVATION
 40
0.0
  9
$PELEVATION
 40
0.0
  9
$THICKNESS
 40
0.0
  9
$LIMCHECK
 70
0
  9
$CHAMFERA
 40
0.0
  9
$CHAMFERB
 40
0.0
  9
$CHAMFERC
 40
0.0
  9
$CHAMFERD
 40
0.0
  9
$SKPOLY
 70
0
  9
$TDCREATE
 40
2461232.258553241
  9
$TDUCREATE
 40
2458532.153996898
  9
$TDUPDATE
 40
2461232.258553241
  9
$TDUUPDATE
 40
2458532.1544311
  9
$TDINDWG
 40
0.0
  9
$TDUSRTIMER
 40
0.0
  9
$USRTIMER
 70
1
  9
$ANGBASE
 50
0.0
  9
$ANGDIR
 70
0
  9
$PDMODE
 70
0
  9
$PDSIZE
 40
0.0
  9
$PLINEWID
 40
0.0
  9
$SPLFRAME
 70
0
  9
$SPLINETYPE
 70
6
  9
$SPLINESEGS
 70
8
  9
$HANDSEED
  5
34
  9
$SURFTAB1
 70
6
  9
$SURFTAB2
 70
6
  9
$SURFTYPE
 70
6
  9
$SURFU
 70
6
  9
$SURFV
 70
6
  9
$UCSBASE
  2

  9
$UCSNAME
  2

  9
$UCSORG
 10
0.0
 20
0.0
 30
0.0
  9
$UCSXDIR
 10
1.0
 20
0.0
 30
0.0
  9
$UCSYDIR
 10
0.0
 20
1.0
 30
0.0
  9
$UCSORTHOREF
  2

  9
$UCSORTHOVIEW
 70
0
  9
$UCSORGTOP
 10
0.0
 20
0.0
 30
0.0
  9
$UCSORGBOTTOM
 10
0.0
 20
0.0
 30
0.0
  9
$UCSORGLEFT
 10
0.0
 20
0.0
 30
0.0
  9
$UCSORGRIGHT
 10
0.0
 20
0.0
 30
0.0
  9
$UCSORGFRONT
 10
0.0
 20
0.0
 30
0.0
  9
$UCSORGBACK
 10
0.0
 20
0.0
 30
0.0
  9
$PUCSBASE
  2

  9
$PUCSNAME
  2

  9
$PUCSORG
 10
0.0
 20
0.0
 30
0.0
  9
$PUCSXDIR
 10
1.0
 20
0.0
 30
0.0
  9
$PUCSYDIR
 10
0.0
 20
1.0
 30
0.0
  9
$PUCSORTHOREF
  2

  9
$PUCSORTHOVIEW
 70
0
  9
$PUCSORGTOP
 10
0.0
 20
0.0
 30
0.0
  9
$PUCSORGBOTTOM
 10
0.0
 20
0.0
 30
0.0
  9
$PUCSORGLEFT
 10
0.0
 20
0.0
 30
0.0
  9
$PUCSORGRIGHT
 10
0.0
 20
0.0
 30
0.0
  9
$PUCSORGFRONT
 10
0.0
 20
0.0
 30
0.0
  9
$PUCSORGBACK
 10
0.0
 20
0.0
 30
0.0
  9
$USERI1
 70
0
  9
$USERI2
 70
0
  9
$USERI3
 70
0
  9
$USERI4
 70
0
  9
$USERI5
 70
0
  9
$USERR1
 40
0.0
  9
$USERR2
 40
0.0
  9
$USERR3
 40
0.0
  9
$USERR4
 40
0.0
  9
$USERR5
 40
0.0
  9
$WORLDVIEW
 70
1
  9
$SHADEDGE
 70
3
  9
$SHADEDIF
 70
70
  9
$TILEMODE
 70
1
  9
$MAXACTVP
 70
64
  9
$PINSBASE
 10
0.0
 20
0.0
 30
0.0
  9
$PLIMCHECK
 70
0
  9
$PEXTMIN
 10
1e+20
 20
1e+20
 30
1e+20
  9
$PEXTMAX
 10
-1e+20
 20
-1e+20
 30
-1e+20
  9
$PLIMMIN
 10
0.0
 20
0.0
  9
$PLIMMAX
 10
420.0
 20
297.0
  9
$UNITMODE
 70
0
  9
$VISRETAIN
 70
1
  9
$PLINEGEN
 70
0
  9
$PSLTSCALE
 70
1
  9
$TREEDEPTH
 70
3020
  9
$CMLSTYLE
  2
Standard
  9
$CMLJUST
 70
0
  9
$CMLSCALE
 40
20.0
  9
$PROXYGRAPHICS
 70
1
  9
$MEASUREMENT
 70
1
  9
$CELWEIGHT
370
-1
  9
$ENDCAPS
280
0
  9
$JOINSTYLE
280
0
  9
$LWDISPLAY
290
0
  9
$INSUNITS
 70
1
  9
$HYPERLINKBASE
  1

  9
$STYLESHEET
  1

  9
$XEDIT
290
1
  9
$CEPSNTYPE
380
0
  9
$PSTYLEMODE
290
1
  9
$FINGERPRINTGUID
  2
{493BA747-101A-436C-B74B-DD95120ED2F7}
  9
$VERSIONGUID
  2
{1FC86B86-33EA-49DE-867B-DA64FC27831C}
  9
$EXTNAMES
290
1
  9
$PSVPSCALE
 40
0.0
  9
$OLESTARTUP
290
0
  9
$SORTENTS
280
127
  9
$INDEXCTL
280
0
  9
$HIDETEXT
280
1
  9
$XCLIPFRAME
280
1
  9
$HALOGAP
280
0
  9
$OBSCOLOR
 70
257
  9
$OBSLTYPE
280
0
  9
$INTERSECTIONDISPLAY
280
0
  9
$INTERSECTIONCOLOR
 70
257
  9
$DIMASSOC
280
2
  9
$PROJECTNAME
  1

  9
$CAMERADISPLAY
290
0
  9
$LENSLENGTH
 40
50.0
  9
$CAMERAHEIGHT
 40
0.0
  9
$STEPSPERSEC
 40
24.0
  9
$STEPSIZE
 40
100.0
  9
$3DDWFPREC
 40
2.0
  9
$PSOLWIDTH
 40
0.005
  9
$PSOLHEIGHT
 40
0.08
  9
$LOFTANG1
 40
1.570796326795
  9
$LOFTANG2
 40
1.570796326795
  9
$LOFTMAG1
 40
0.0
  9
$LOFTMAG2
 40
0.0
  9
$LOFTPARAM
 70
7
  9
$LOFTNORMALS
280
1
  9
$LATITUDE
 40
37.795
  9
$LONGITUDE
 40
-122.394
  9
$NORTHDIRECTION
 40
0.0
  9
$TIMEZONE
 70
-8000
  9
$LIGHTGLYPHDISPLAY
280
1
  9
$TILEMODELIGHTSYNCH
280
1
  9
$CMATERIAL
347
20
  9
$SOLIDHIST
280
0
  9
$SHOWHIST
280
1
  9
$DWFFRAME
280
2
  9
$DGNFRAME
280
2
  9
$REALWORLDSCALE
290
1
  9
$INTERFERECOLOR
 62
256
  9
$CSHADOW
280
0
  9
$SHADOWPLANELOCATION
 40
0.0
  0
ENDSEC
  0
SECTION
  2
CLASSES
  0
CLASS
  1
ACDBDICTIONARYWDFLT
  2
AcDbDictionaryWithDefault
  3
ObjectDBX Classes
 90
0
 91
0
280
0
281
0
  0
CLASS
  1
SUN
  2
AcDbSun
  3
SCENEOE
 90
1153
 91
0
280
0
281
0
  0
CLASS
  1
VISUALSTYLE
  2
AcDbVisualStyle
  3
ObjectDBX Classes
 90
4095
 91
0
280
0
281
0
  0
CLASS
  1
MATERIAL
  2
AcDbMaterial
  3
ObjectDBX Classes
 90
1153
 91
0
280
0
281
0
  0
CLASS
  1
SCALE
  2
AcDbScale
  3
ObjectDBX Classes
 90
1153
 91
0
280
0
281
0
  0
CLASS
  1
TABLESTYLE
  2
AcDbTableStyle
  3
ObjectDBX Classes
 90
4095
 91
0
280
0
281
0
  0
CLASS
  1
MLEADERSTYLE
  2
AcDbMLeaderStyle
  3
ACDB_MLEADERSTYLE_CLASS
 90
4095
 91
0
280
0
281
0
  0
CLASS
  1
DICTIONARYVAR
  2
AcDbDictionaryVar
  3
ObjectDBX Classes
 90
0
 91
0
280
0
281
0
  0
CLASS
  1
CELLSTYLEMAP
  2
AcDbCellStyleMap
  3
ObjectDBX Classes
 90
1152
 91
0
280
0
281
0
  0
CLASS
  1
MENTALRAYRENDERSETTINGS
  2
AcDbMentalRayRenderSettings
  3
SCENEOE
 90
1024
 91
0
280
0
281
0
  0
CLASS
  1
ACDBDETAILVIEWSTYLE
  2
AcDbDetailViewStyle
  3
ObjectDBX Classes
 90
1025
 91
0
280
0
281
0
  0
CLASS
  1
ACDBSECTIONVIEWSTYLE
  2
AcDbSectionViewStyle
  3
ObjectDBX Classes
 90
1025
 91
0
280
0
281
0
  0
CLASS
  1
RASTERVARIABLES
  2
AcDbRasterVariables
  3
ISM
 90
0
 91
0
280
0
281
0
  0
CLASS
  1
LAYOUT
  2
AcDbLayout
  3
ObjectDBX Classes
 90
0
 91
0
280
0
281
0
  0
CLASS
  1
ACDBPLACEHOLDER
  2
AcDbPlaceHolder
  3
ObjectDBX Classes
 90
0
 91
0
280
0
281
0
  0
ENDSEC
  0
SECTION
  2
TABLES
  0
TABLE
  2
VPORT
  5
8
330
0
100
AcDbSymbolTable
 70
1
  0
VPORT
  5
23
330
8
100
AcDbSymbolTableRecord
100
AcDbViewportTableRecord
  2
*Active
 70
0
 10
0.0
 20
0.0
 11
1.0
 21
1.0
 12
0.0
 22
0.0
 13
0.0
 23
0.0
 14
0.5
 24
0.5
 15
0.5
 25
0.5
 16
0.0
 26
0.0
 36
1.0
 17
0.0
 27
0.0
 37
0.0
 40
1000.0
 41
1.34
 42
50.0
 43
0.0
 44
0.0
 50
0.0
 51
0.0
 71
0
 72
1000
 73
1
 74
3
 75
0
 76
0
 77
0
 78
0
281
0
 65
0
146
0.0
  0
ENDTAB
  0
TABLE
  2
LTYPE
  5
2
330
0
100
AcDbSymbolTable
 70
3
  0
LTYPE
  5
24
330
2
100
AcDbSymbolTableRecord
100
AcDbLinetypeTableRecord
  2
ByBlock
 70
0
  3

 72
65
 73
0
 40
0.0
  0
LTYPE
  5
25
330
2
100
AcDbSymbolTableRecord
100
AcDbLinetypeTableRecord
  2
ByLayer
 70
0
  3

 72
65
 73
0
 40
0.0
  0
LTYPE
  5
26
330
2
100
AcDbSymbolTableRecord
100
AcDbLinetypeTableRecord
  2
Continuous
 70
0
  3

 72
65
 73
0
 40
0.0
  0
ENDTAB
  0
TABLE
  2
LAYER
  5
1
330
0
100
AcDbSymbolTable
 70
3
  0
LAYER
  5
27
330
1
100
AcDbSymbolTableRecord
100
AcDbLayerTableRecord
  2
0
 70
0
 62
7
  6
Continuous
370
-3
390
13
347
21
  0
LAYER
  5
28
330
1
100
AcDbSymbolTableRecord
100
AcDbLayerTableRecord
  2
Defpoints
 70
0
 62
7
  6
Continuous
290
0
370
-3
390
13
347
21
  0
LAYER
  5
2F
330
1
100
AcDbSymbolTableRecord
100
AcDbLayerTableRecord
  2
TRACE
 70
0
 62
7
  6
Continuous
370
-3
390
13
347
21
  0
ENDTAB
  0
TABLE
  2
STYLE
  5
5
330
0
100
AcDbSymbolTable
 70
1
  0
STYLE
  5
29
330
5
100
AcDbSymbolTableRecord
100
AcDbTextStyleTableRecord
  2
Standard
 70
0
 40
0.0
 41
1.0
 50
0.0
 71
0
 42
2.5
  3
txt
  4

  0
ENDTAB
  0
TABLE
  2
VIEW
  5
7
330
0
100
AcDbSymbolTable
 70
0
  0
ENDTAB
  0
TABLE
  2
UCS
  5
6
330
0
100
AcDbSymbolTable
 70
0
  0
ENDTAB
  0
TABLE
  2
APPID
  5
3
330
0
100
AcDbSymbolTable
 70
3
  0
APPID
  5
2A
330
3
100
AcDbSymbolTableRecord
100
AcDbRegAppTableRecord
  2
ACAD
 70
0
  0
APPID
  5
31
330
3
100
AcDbSymbolTableRecord
100
AcDbRegAppTableRecord
  2
HATCHBACKGROUNDCOLOR
 70
0
  0
APPID
  5
32
330
3
100
AcDbSymbolTableRecord
100
AcDbRegAppTableRecord
  2
EZDXF
 70
0
  0
ENDTAB
  0
TABLE
  2
DIMSTYLE
  5
4
330
0
100
AcDbSymbolTable
 70
1
100
AcDbDimStyleTable
  0
DIMSTYLE
105
2B
330
4
100
AcDbSymbolTableRecord
100
AcDbDimStyleTableRecord
  2
Standard
 70
0
 40
1.0
 41
2.5
 42
0.625
 43
3.75
 44
1.25
 45
0.0
 46
0.0
 47
0.0
 48
0.0
 49
2.5
140
2.5
141
2.5
142
0.0
143
0.03937007874
144
1.0
145
0.0
146
1.0
147
0.625
148
0.0
 69
0
 70
0
 71
0
 72
0
 73
0
 74
0
 75
0
 76
0
 77
1
 78
8
 79
3
170
0
171
3
172
1
173
0
174
0
175
0
176
0
177
0
178
0
179
2
271
2
272
2
273
2
274
3
275
0
276
0
277
2
278
44
279
0
280
0
281
0
282
0
283
0
284
8
285
0
286
0
288
0
289
3
290
0
371
-2
372
-2
  0
ENDTAB
  0
TABLE
  2
BLOCK_RECORD
  5
9
330
0
100
AcDbSymbolTable
 70
2
  0
BLOCK_RECORD
  5
17
330
9
100
AcDbSymbolTableRecord
100
AcDbBlockTableRecord
  2
*Model_Space
340
1A
 70
0
280
1
281
0
  0
BLOCK_RECORD
  5
1B
330
9
100
AcDbSymbolTableRecord
100
AcDbBlockTableRecord
  2
*Paper_Space
340
1E
 70
0
280
1
281
0
  0
ENDTAB
  0
ENDSEC
  0
SECTION
  2
BLOCKS
  0
BLOCK
  5
18
330
17
100
AcDbEntity
  8
0
100
AcDbBlockBegin
  2
*Model_Space
 70
0
 10
0.0
 20
0.0
 30
0.0
  3
*Model_Space
  1

  0
ENDBLK
  5
19
330
17
100
AcDbEntity
  8
0
100
AcDbBlockEnd
  0
BLOCK
  5
1C
330
1B
100
AcDbEntity
  8
0
100
AcDbBlockBegin
  2
*Paper_Space
 70
0
 10
0.0
 20
0.0
 30
0.0
  3
*Paper_Space
  1

  0
ENDBLK
  5
1D
330
1B
100
AcDbEntity
  8
0
100
AcDbBlockEnd
  0
ENDSEC
  0
SECTION
  2
ENTITIES
  0
LWPOLYLINE
  5
30
330
17
100
AcDbEntity
  8
TRACE
100
AcDbPolyline
 90
638
 70
0
 10
9.207566325706441
 20
14.102125168809458
 10
9.209692096425279
 20
14.07202733288227
 10
9.211158974062664
 20
14.041982242615
 10
9.211158974062664
 20
14.011983450097452
 10
9.212066681909924
 20
13.981989087776704
 10
9.214203813232436
 20
13.952013608621524
 10
9.212915305845408
 20
13.922042998296488
 10
9.210282957474691
 20
13.892038613203773
 10
9.212138727437086
 20
13.86209833437465
 10
9.215935713137778
 20
13.83228177208091
 10
9.211817494305773
 20
13.802499993411546
 10
9.210065351471489
 20
13.77255399041725
 10
9.206670833797883
 20
13.742747977255492
 10
9.207671795094608
 20
13.712585596431365
 10
9.21107126932503
 20
13.682605226514372
 10
9.214384859146206
 20
13.652611258963637
 10
9.211329492776118
 20
13.622642863737001
 10
9.213273954401178
 20
13.59260244491487
 10
9.214993375187813
 20
13.562659972919015
 10
9.213654446897605
 20
13.532665742188271
 10
9.21564200424896
 20
13.502634775914759
 10
9.212792817483397
 20
13.472665722738103
 10
9.21561461159647
 20
13.44262933934276
 10
9.219011212778472
 20
13.412650482710813
 10
9.221734292456913
 20
13.382606818001918
 10
9.21821636529127
 20
13.352691234230203
 10
9.221331056821471
 20
13.322671562765361
 10
9.224366838212637
 20
13.292642043981893
 10
9.220134267667197
 20
13.262823705223097
 10
9.216787868071703
 20
13.232894348364301
 10
9.213356000768641
 20
13.202981177075992
 10
9.209930405922437
 20
13.173058750624072
 10
9.213548231832748
 20
13.1432211997247
 10
9.218609775539749
 20
13.11348161758327
 10
9.214610864977994
 20
13.083626433623369
 10
9.219709451271108
 20
13.053874174978226
 10
9.223541746956192
 20
13.023942910064372
 10
9.223040783811149
 20
12.993948306495284
 10
9.223040783811149
 20
12.963954097696208
 10
9.220732782868504
 20
12.933924513117736
 10
9.220163941213087
 20
12.903935436328814
 10
9.217138467705565
 20
12.873983555647676
 10
9.217138467705565
 20
12.843902848352668
 10
9.22158943379423
 20
12.81404272976762
 10
9.219866810984165
 20
12.78409881028172
 10
9.224960352993794
 20
12.754354074198469
 10
9.221983984489412
 20
12.724383924438449
 10
9.225175239470246
 20
12.694549992264186
 10
9.228491000526489
 20
12.664549993504934
 10
9.224601046488004
 20
12.634683141898016
 10
9.223683557117118
 20
12.604572541740446
 10
9.22718207475718
 20
12.574592018301779
 10
9.230067251388824
 20
12.544559758059894
 10
9.226797853877308
 20
12.514622176825851
 10
9.225278625350018
 20
12.484537280582385
 10
9.224199411864276
 20
12.454439992946881
 10
9.222160051914699
 20
12.424385954559341
 10
9.222160051914699
 20
12.394357444632568
 10
9.225290621972047
 20
12.364345317661286
 10
9.225290621972047
 20
12.334347226957094
 10
9.227791380338811
 20
12.30427748549575
 10
9.22465938472309
 20
12.274324859137922
 10
9.22721275715977
 20
12.244376706840228
 10
9.228512537423802
 20
12.214333064063002
 10
9.228512537423802
 20
12.18432881056029
 10
9.226716355801528
 20
12.154327671354338
 10
9.22892360266448
 20
12.124228870433788
 10
9.224381291181405
 20
12.094455360003007
 10
9.227726901236874
 20
12.064467752635796
 10
9.229395923051996
 20
12.034449243549322
 10
9.229395923051996
 20
12.004458061320337
 10
9.226117972190224
 20
11.974519646682936
 10
9.228187115344028
 20
11.944498747044726
 10
9.230520249977427
 20
11.914526162869631
 10
9.229725621806898
 20
11.884546692150998
 10
9.227902793208823
 20
11.854603913111799
 10
9.226731707968655
 20
11.824626153063218
 10
9.230539067347992
 20
11.794691269424256
 10
9.228819164064676
 20
11.764752964445192
 10
9.231584045501041
 20
11.734872997701213
 10
9.233995520050126
 20
11.704975770735048
 10
9.235727134843794
 20
11.674930636604444
 10
9.234654347336576
 20
11.644953337120874
 10
9.239243307476052
 20
11.615127717048528
 10
9.244245460227937
 20
11.58536721209647
 10
9.244245460227937
 20
11.555361708488721
 10
9.244245460227937
 20
11.525241436465858
 10
9.247909890931314
 20
11.495281594589482
 10
9.245318905685172
 20
11.465275520758382
 10
9.250264891437038
 20
11.435531420693483
 10
9.252754969081815
 20
11.405569736557052
 10
9.251648494533587
 20
11.375477800248373
 10
9.247205445776826
 20
11.345680450095209
 10
9.247205445776826
 20
11.315677139654193
 10
9.249422803138415
 20
11.285752037538858
 10
9.251425208228548
 20
11.255821627960032
 10
9.248178773172723
 20
11.225878519945823
 10
9.242926336233323
 20
11.196224339716958
 10
9.239726944603909
 20
11.166278556039336
 10
9.236309881176293
 20
11.136345953293777
 10
8.632080800649288
 20
15.894937626416956
 10
8.662022790148463
 20
15.898209436411877
 10
8.691783097715515
 20
15.90281752096526
 10
8.721556279171287
 20
15.898634252807968
 10
8.751432627190157
 20
15.894395870370687
 10
8.78146146609194
 20
15.896747997827989
 10
8.811395406669206
 20
15.900064943194264
 10
8.841155516851252
 20
15.896248065471308
 10
8.871034365080199
 20
15.900025729373088
 10
8.90100925208036
 20
15.9012160486855
 10
8.930880292635738
 20
15.898462812964485
 10
8.96076203584477
 20
15.902298420331338
 10
8.990662530629365
 20
15.9047568944435
 10
9.020516091645884
 20
15.908074892529807
 10
9.050184834501854
 20
15.902466855536396
 10
9.080312102726593
 20
15.901377224508673
 10
9.11035320143041
 20
15.900058955849085
 10
9.140354691543038
 20
15.89681006444652
 10
9.17026538455294
 20
15.900356787891363
 10
9.20012598563467
 20
15.897335174357288
 10
9.230039310444651
 20
15.900794851014517
 10
9.260023189428416
 20
15.903613026402482
 10
9.290020359002582
 20
15.904196606138342
 10
9.320007286488107
 20
15.905010643834453
 10
9.350019610844393
 20
15.907634504649916
 10
9.380121284813363
 20
15.90848920365725
 10
9.409833693618978
 20
15.903220822395705
 10
9.439743114592174
 20
15.899693333023105
 10
9.46973953848965
 20
15.899693333023105
 10
9.49967878653041
 20
15.902847128716148
 10
9.529520394788236
 20
15.899262595076836
 10
9.559427052371351
 20
15.896848488727674
 10
9.58930585673696
 20
15.894175610635738
 10
9.619310088308005
 20
15.89690353721266
 10
9.649323991744339
 20
15.899464476074566
 10
9.67921025287684
 20
15.8969515017691
 10
9.70922893741665
 20
15.8969515017691
 10
9.739246152534752
 20
15.899407409876186
 10
9.76924009815382
 20
15.899407409876186
 10
9.799292535529645
 20
15.901456836461065
 10
9.829287292620405
 20
15.90095455741598
 10
9.859339620337893
 20
15.90291551165487
 10
9.889313695866365
 20
15.899668791487368
 10
9.919317949369075
 20
15.902309846730015
 10
9.94929356011426
 20
15.900088651326644
 10
9.979312727150752
 20
15.902613095894122
 10
10.009322660955302
 20
15.905226692689276
 10
10.039274914474785
 20
15.901868515788427
 10
10.06935292417471
 20
15.903051487992286
 10
10.099472275067544
 20
15.903963209334666
 10
10.129478765600323
 20
15.903409939163051
 10
10.159568837717279
 20
15.904778190092474
 10
10.189664721726075
 20
15.906090778450224
 10
10.219753434079655
 20
15.907379351632255
 10
10.249739045665141
 20
15.905108481002392
 10
10.2796738635091
 20
15.903137832966546
 10
10.309783761853318
 20
15.903137832966546
 10
10.339903397857826
 20
15.903137832966546
 10
10.369826241011426
 20
15.906555510480848
 10
10.399828235552402
 20
15.905628853673019
 10
10.429937278561594
 20
15.904929562460353
 10
10.460046847930801
 20
15.905488183958795
 10
10.49012360752569
 20
15.907082594241675
 10
10.520237607091698
 20
15.907631236831485
 10
10.550334149050514
 20
15.908918406386807
 10
10.580445297499768
 20
15.90964813875372
 10
10.610461745009513
 20
15.908061185237731
 10
10.640544272632907
 20
15.90953023411018
 10
10.670506066427677
 20
15.907358823591638
 10
10.70064296265437
 20
15.907358823591638
 10
10.730741149488237
 20
15.908421763780225
 10
10.76070643041811
 20
15.911617887591206
 10
10.790830430824418
 20
15.912141221036922
 10
4.932372176974962
 20
9.982183209565289
 10
4.952244877440084
 20
10.004863338901384
 10
4.971599815102989
 20
10.027971991085352
 10
4.990966705524588
 20
10.051084349721094
 10
5.0105899552055515
 20
10.073962982578152
 10
5.029862802637659
 20
10.097130894127233
 10
5.048664535923953
 20
10.120692698421472
 10
5.069269052264385
 20
10.14265649563939
 10
5.089583960937786
 20
10.16477460406861
 10
5.10891260253157
 20
10.187894068564567
 10
5.128292476500224
 20
10.210991623324865
 10
5.14752714089952
 20
10.234197257341744
 10
5.16842497135876
 20
10.255778039921495
 10
5.1884508864518155
 20
10.278295787192715
 10
5.208351176954432
 20
10.300928171289044
 10
5.228006468801358
 20
10.323777284121883
 10
5.249822468513172
 20
10.34437429983209
 10
5.270873272352006
 20
10.365747981677288
 10
5.292481952012594
 20
10.386556309002172
 10
5.313708998730053
 20
10.407780482671214
 10
5.332529330070239
 20
10.431327987518358
 10
5.352000966134983
 20
10.454309348305168
 10
5.3714515477990945
 20
10.477243205100551
 10
5.392750618112052
 20
10.49838252514871
 10
5.414354845644172
 20
10.519191949056962
 10
5.434051961180687
 20
10.541844356765559
 10
5.453755524627396
 20
10.564606115767441
 10
5.473797713017608
 20
10.586938036021415
 10
5.495438873477504
 20
10.607734849220954
 10
5.517356263287362
 20
10.6282132365426
 10
5.537961393714479
 20
10.65001875291743
 10
5.5613716721191695
 20
10.66902477968486
 10
5.583816496596533
 20
10.688969854652154
 10
5.603207358330518
 20
10.712051311568636
 10
5.623319092037819
 20
10.734358163926856
 10
5.6446163639540545
 20
10.755492702871539
 10
5.66564411761053
 20
10.776895729287617
 10
5.686700667546203
 20
10.798281122643166
 10
5.7076739648727095
 20
10.81973141180233
 10
5.728248215512233
 20
10.841586055111971
 10
5.748372976629923
 20
10.86388595513165
 10
5.769927989500566
 20
10.884753497958314
 10
5.790752173420928
 20
10.906351343375242
 10
5.811086776731587
 20
10.928426750848178
 10
5.832997082612899
 20
10.948960691083158
 10
5.854797949474259
 20
10.969568541037024
 10
5.877070983201463
 20
10.98968448562445
 10
5.89756320940519
 20
11.011650717257442
 10
5.918845809035985
 20
11.032790958435628
 10
5.9407113304526185
 20
11.053342290482796
 10
5.960389146121888
 20
11.07609878588452
 10
5.980450305404336
 20
11.098450225322413
 10
6.001059164214898
 20
11.120281379816348
 10
6.021792265920858
 20
11.141980834647995
 10
6.043574841771668
 20
11.1626144323793
 10
6.063712213598071
 20
11.184874219379441
 10
6.082765678561924
 20
11.208142358648196
 10
6.104498710776246
 20
11.228816266784046
 10
6.126095656994814
 20
11.24963722674931
 10
6.1479506731428
 20
11.2701859927914
 10
6.167119103906772
 20
11.293428472009385
 10
6.188933283290197
 20
11.314019171399403
 10
6.209145793008856
 20
11.336260184892312
 10
6.229010203303729
 20
11.358797253962447
 10
6.251551702570663
 20
11.378615388439263
 10
6.27141402935714
 20
11.401190881790551
 10
6.291270741636781
 20
11.423688451927832
 10
6.313083977958512
 20
11.444278361777826
 10
6.333668229438335
 20
11.466100085654812
 10
6.3558136427933745
 20
11.486347093886174
 10
6.3773706514457436
 20
11.507204241102526
 10
6.398869168341356
 20
11.528127117525852
 10
6.4195896812702715
 20
11.549831419255977
 10
6.441932150656228
 20
11.569871239026117
 10
6.461238553539344
 20
11.593015793349494
 10
6.482730008438077
 20
11.613931892887617
 10
6.504538617178002
 20
11.634534566967993
 10
6.525545053253837
 20
11.655960183001417
 10
6.545009451868364
 20
11.67896996722908
 10
6.564202139056398
 20
11.70220689773523
 10
6.586481116265448
 20
11.722310341272284
 10
6.60688105401307
 20
11.744290499514026
 10
6.628239383691139
 20
11.765352839409873
 10
6.64980876180388
 20
11.786206345969449
 10
6.669648740221352
 20
11.808838686202444
 10
6.691883261940734
 20
11.828966605480229
 10
6.713971104669044
 20
11.849267302433205
 10
6.735727428314066
 20
11.869920265826758
 10
6.756251016802067
 20
11.891814298410914
 10
6.778102984448294
 20
11.912357844716183
 10
6.798426841241964
 20
11.934506789069662
 10
6.818871146752585
 20
11.956486179703047
 10
6.83921472011518
 20
11.978533602368477
 10
6.8622964621433375
 20
11.99777607444134
 10
6.8840305032143565
 20
12.018443973300341
 10
6.9065808409432226
 20
12.038256537133657
 10
6.927757993117518
 20
12.059500690551632
 10
6.949146434974825
 20
12.0805481827087
 10
6.970906311549952
 20
12.101219963472818
 10
6.990264188056281
 20
12.124330260531833
 10
4.873327961518497
 20
13.62327179816089
 10
4.903282298546376
 20
13.626409408283447
 10
4.93286006884628
 20
13.63208376663885
 10
4.96253953628757
 20
13.637173470606697
 10
4.992072149284452
 20
13.643087015725952
 10
5.021622197956857
 20
13.648957596708915
 10
5.0511879935664
 20
13.65475992634316
 10
5.08049979853665
 20
13.66165870775367
 10
5.109908870451488
 20
13.668199805601768
 10
5.139181658985566
 20
13.67529116898306
 10
5.168499933797677
 20
13.682234054976558
 10
5.197777481503565
 20
13.689270830437877
 10
5.227152756719055
 20
13.695437379271395
 10
5.256442366841972
 20
13.702085635246046
 10
5.2857461009586455
 20
13.708498564430297
 10
5.314934145530179
 20
13.715427852790054
 10
5.344144231427374
 20
13.722309264320039
 10
5.3732884784592585
 20
13.72935979093677
 10
5.402316794697662
 20
13.736930470907456
 10
5.431237404517831
 20
13.744898464963406
 10
5.460235016421979
 20
13.752645716787727
 10
5.488977892010143
 20
13.761237820300753
 10
5.517698221844298
 20
13.76990264922263
 10
5.546298475799846
 20
13.778947268827578
 10
5.574663446828329
 20
13.788689008410127
 10
5.602975935376902
 20
13.798586440899019
 10
5.631121852912139
 20
13.80894209171334
 10
5.659033057743662
 20
13.819990827078472
 10
5.6870026008102705
 20
13.830850226359585
 10
5.71482691237585
 20
13.842068581239813
 10
5.742462808987438
 20
13.853744869333791
 10
5.769754685465362
 20
13.866225150420247
 10
5.797097860113159
 20
13.878578162041215
 10
5.82444502632441
 20
13.890900096489583
 10
5.851526161411005
 20
13.903802320923711
 10
5.878524877291792
 20
13.916873989419594
 10
5.905258899879629
 20
13.93051493820424
 10
5.931823719654052
 20
13.944457820252952
 10
5.958295395637345
 20
13.958554509084617
 10
5.9844163184651045
 20
13.973300770039122
 10
6.010450984045273
 20
13.9882115623619
 10
6.036227930602703
 20
14.003568093891401
 10
6.062058302701737
 20
14.018809747347449
 10
6.087268447248811
 20
14.035093418181457
 10
6.112379087821232
 20
14.051532584536801
 10
6.137606733838831
 20
14.067769321602732
 10
6.162602934971148
 20
14.08436499233611
 10
6.187693113297954
 20
14.100799289861307
 10
6.212328363049431
 20
14.117919434487101
 10
6.235878148789977
 20
14.136546832949826
 10
6.258786126217917
 20
14.156021210472986
 10
6.282240509205598
 20
14.174742454540196
 10
6.305560955500924
 20
14.19362715532398
 10
6.3291807032602385
 20
14.212124279682794
 10
6.352103901265302
 20
14.231497618014584
 10
6.374734750144919
 20
14.251204953708074
 10
6.396702429267954
 20
14.271689591554907
 10
6.418074203058094
 20
14.29278335953003
 10
6.4399792234075806
 20
14.313325611866926
 10
6.461395189507381
 20
14.334320709270754
 10
6.4827913074482515
 20
14.355356862755814
 10
6.503797392617409
 20
14.376803577053204
 10
6.52484872281626
 20
14.398188180868729
 10
6.546201503782496
 20
14.419255674706399
 10
6.566760007484879
 20
14.441121634756378
 10
6.586740633684908
 20
14.463530776411003
 10
6.606956148041991
 20
14.485717092325606
 10
6.626993314080385
 20
14.508061930331634
 10
6.647016202603351
 20
14.530391964462217
 10
6.666163535103356
 20
14.553507437394721
 10
6.685690680218101
 20
14.576277552361853
 10
6.704936047271049
 20
14.599291152699632
 10
6.723831823546834
 20
14.62258993050764
 10
6.7420817560832225
 20
14.64640289625609
 10
6.759773374164512
 20
14.67068061596683
 10
6.77788507140175
 20
14.694596419303368
 10
6.795684001131262
 20
14.718745663306917
 10
6.81318244508675
 20
14.74310830243354
 10
6.830265349741426
 20
14.767770440409159
 10
6.8468907159523615
 20
14.792745631004177
 10
6.863015360266593
 20
14.818069535109668
 10
6.878767714527979
 20
14.843609488069982
 10
6.894783248797268
 20
14.868979667993528
 10
6.910444674365922
 20
14.894563857126837
 10
6.925635534080445
 20
14.920442259577312
 10
6.940128922910691
 20
14.946727406730004
 10
6.954360447633071
 20
14.97313993300652
 10
6.9681066684208774
 20
14.999826561261267
 10
6.981840585543315
 20
15.02651307985768
 10
6.994876637011462
 20
15.053566427521773
 10
7.008020789667855
 20
15.080541259816842
 10
7.020824409325687
 20
15.107694045660589
 10
7.03321428807943
 20
15.135036474631697
 10
7.044918889955925
 20
15.162704018639236
 10
7.056513855427462
 20
15.190400008019296
 10
7.067947710870827
 20
15.218155848919485
 10
7.079059653301192
 20
15.246050232162169
 10
7.089673242454923
 20
15.27413684646896
 10
7.100308894865985
 20
15.302194313589874
 10
7.110521704731014
 20
15.33042782620441
 10
10.987559767625644
 20
14.658254769278676
 10
10.986442524628758
 20
14.628147371144532
 10
10.983723261060431
 20
14.598250780196722
 10
10.97990732639917
 20
14.568378116697962
 10
10.978827301441736
 20
14.538401124257737
 10
10.9759468181869
 20
14.508410512252102
 10
10.974950089701968
 20
14.478414022559623
 10
10.973678250382108
 20
14.448438960106122
 10
10.97170071580272
 20
14.418481070148136
 10
10.96931347574603
 20
14.38856827169817
 10
10.96931347574603
 20
14.358576519245835
 10
10.96931347574603
 20
14.328569655874713
 10
10.975059309405248
 20
14.298941069901616
 10
10.979397261612185
 20
14.269075490331403
 10
10.978415051891023
 20
14.239053406383157
 10
10.97347134703256
 20
14.209341874844236
 10
10.978403099132331
 20
14.17956937327015
 10
10.982093321476484
 20
14.149619773482414
 10
10.979393752545414
 20
14.119618458823124
 10
10.982852990569297
 20
14.089633220075983
 10
10.985405902440963
 20
14.059600060635738
 10
10.983122179854048
 20
14.029573349105686
 10
10.986883548527004
 20
13.99963177630819
 10
10.98987454545349
 20
13.9697104025763
 10
10.985508082079031
 20
13.939906560649609
 10
10.982833317863706
 20
13.909908053243736
 10
10.98117015180376
 20
13.879831315580516
 10
10.982651065708232
 20
13.849757275512374
 10
10.984798110144377
 20
13.819750083166243
 10
10.984798110144377
 20
13.789698150218765
 10
10.988194557804707
 20
13.759782478720382
 10
10.990959066402727
 20
13.72978561618956
 10
10.99438648157732
 20
13.699978747692775
 10
10.998308302328429
 20
13.67022271680085
 10
11.002384763265846
 20
13.640414532404028
 10
11.008351690063371
 20
13.611024343654758
 10
11.015369165657443
 20
13.58174344040377
 10
11.027016460087218
 20
13.553952574630861
 10
11.043666959988908
 20
13.52883406058987
 10
11.058750529986876
 20
13.502733424554387
 10
11.073994332746322
 20
13.476755912899268
 10
11.091114477372116
 20
13.45201078549449
 10
11.108358952619978
 20
13.427264429916344
 10
11.126218435682976
 20
13.403023533475043
 10
11.145014050034085
 20
13.379526537257748
 10
11.165229454732831
 20
13.357340572249825
 10
11.185787125031856
 20
13.335487902790243
 10
11.206728818825747
 20
13.314024673947358
 10
11.22765869145095
 20
13.292517823018162
 10
11.249671571740341
 20
13.272140825794562
 10
11.272278844077583
 20
13.252418642362294
 10
11.296726621936765
 20
13.234936252387287
 10
11.319716272893825
 20
13.21567005025038
 10
11.344546078466143
 20
13.198757050222472
 10
11.371757619246655
 20
13.18579607085158
 10
11.398727758164917
 20
13.172316714591787
 10
11.427813228328368
 20
13.164441074786945
 10
11.455395282696674
 20
13.152503536671787
 10
11.485196975319969
 20
13.148098144587824
 10
11.515273691051522
 20
13.14667725765682
 10
11.545331567480844
 20
13.144659346877889
 10
11.575363323294381
 20
13.142391678271455
 10
11.605440389932612
 20
13.140840319851534
 10
11.635553599958595
 20
13.140139734670495
 10
11.665584653958778
 20
13.142383168784534
 10
11.69559235073326
 20
13.144953560195058
 10
11.665551624867787
 20
13.147785026173421
 10
11.695575880051098
 20
13.15012938982049
 10
11.72567426426997
 20
13.150953143245228
 10
11.695616058865639
 20
13.153619266383625
 10
11.725690910405469
 20
13.155240213983971
 10
11.755779425374044
 20
13.156437134728248
 10
11.785892635400028
 20
13.156437134728248
 10
11.815994572549005
 20
13.157487486139791
 10
11.785842236428515
 20
13.15850638754039
 10
11.75569270756144
 20
13.159805268606062
 10
11.725597854341007
 20
13.162075218105898
 10
11.755695032318176
 20
13.163194676201181
 10
11.725612373104777
 20
13.165709536630038
 10
11.695566295912478
 20
13.168505692624008
 10
11.725671435084884
 20
13.169495688087071
 10
11.69561908543573
 20
13.172210653048603
 10
11.665578732408601
 20
13.175149299085184
 10
11.695664615577098
 20
13.17657755505641
 10
11.725573707575283
 20
13.174266001183659
 10
11.755635751021398
 20
13.176061480992578
 10
11.725597569229333
 20
13.17889910976946
 10
11.69552912173636
 20
13.181468667776626
 10
11.725519689878661
 20
13.184230632301237
 10
11.755558332235738
 20
13.184230632301237
 10
11.785485408201133
 20
13.181936448309006
 10
11.755313114263375
 20
13.182571501668079
 10
11.785329517909783
 20
13.182571501668079
 10
11.815280411665892
 20
13.180972463803391
 10
11.78524067272545
 20
13.181707152727121
 10
11.815249816989974
 20
13.181707152727121
 10
11.845232445868703
 20
13.180785101569432
 10
11.81521746778067
 20
13.180785101569432
 10
11.785172574898404
 20
13.181523277628266
 10
11.815117503241002
 20
13.179702115836909
 10
10.736900022238192
 20
10.960423123489049
 10
10.741478323587346
 20
10.930592502996552
 10
10.747052191043066
 20
10.90093297144086
 10
10.754052603799959
 20
10.87158179912776
 10
10.76219197190439
 20
10.842526528870215
 10
10.769458174537597
 20
10.813397546278788
 10
10.777222401472429
 20
10.78442017730358
 10
10.785689472550033
 20
10.75564578590947
 10
10.795539488774168
 20
10.727314962487013
 10
10.805639372484139
 20
10.699059167298476
 10
10.816823623621675
 20
10.671225337389277
 10
10.828249298553128
 20
10.643492853714788
 10
10.840454578462992
 20
10.616083905996682
 10
10.85349718749967
 20
10.58907744823733
 10
10.867811263017863
 20
10.56271152675388
 10
10.883758238895092
 20
10.537292570802201
 10
10.901860680968719
 20
10.513287198536306
 10
10.920419082406038
 20
10.489650936231495
 10
10.939279307449087
 20
10.466266734579253
 10
10.959178698753345
 20
10.44372729688905
 10
10.979958339457369
 20
10.421974920944146
 10
11.000819653690513
 20
10.400348959129706
 10
11.022140721465796
 20
10.379172947402113
 10
11.044158953082016
 20
10.35868126949007
 10
11.066035747375654
 20
10.3381099357623
 10
11.087724280236973
 20
10.31738176868149
 10
11.110024838206673
 20
10.297304972120237
 10
11.13274472965563
 20
10.277707316695043
 10
11.156381145482111
 20
10.259174970078506
 10
11.180187378208693
 20
10.240886174627617
 10
11.204537647874945
 20
10.223340138954033
 10
11.228743212400186
 20
10.205614833831731
 10
11.253678575087342
 20
10.188936721960879
 10
11.279239779833292
 20
10.173226849339102
 10
11.30539267903201
 20
10.1585262281843
 10
11.332096150807265
 20
10.144855956760441
 10
11.359467836622585
 20
10.132591987708814
 10
11.387032477247033
 20
10.120750663818214
 10
11.414899577495564
 20
10.109629729404245
 10
11.442908707221694
 20
10.098839743850217
 10
11.472108660688587
 20
10.091408724737057
 10
11.50129236278999
 20
10.084094601410744
 10
11.530954328760753
 20
10.078817052712257
 10
11.560847388710126
 20
10.07509200288039
 10
11.590870942080084
 20
10.072599666273877
 10
11.620953338113475
 20
10.0710919738036
 10
11.651072974117984
 20
10.0710919738036
 10
11.681178354538734
 20
10.072016876078044
 10
11.711241494568213
 20
10.073948134839373
 10
11.741214407718315
 20
10.0769093704933
 10
11.711108128099207
 20
10.07896822769513
 10
11.681079683967436
 20
10.081931064360772
 10
11.711142363431902
 20
10.083880526405983
 10
11.681125455357144
 20
10.086363191147203
 10
11.711164426689232
 20
10.087674200424908
 10
11.681152233922948
 20
10.089200008452396
 10
11.711169931537729
 20
10.08979133006682
 10
11.741160126841685
 20
10.091110388266433
 10
11.711140214128505
 20
10.091110388266433
 10
11.74113418167924
 20
10.091972390518986
 10
11.711094179558788
 20
10.091972390518986
 10
11.741095845124756
 20
10.092847727225273
 10
11.711101943369021
 20
10.092061213771654
 10
11.741100275321555
 20
10.09280478502065
 10
11.711124774234708
 20
10.091808231989056
 10
11.681129074082254
 20
10.091808231989056
 10
11.711109619452586
 20
10.090826811807915
 10
11.741100582364897
 20
10.091432301279433
 10
11.71106283920618
 20
10.091432301279433
 10
11.741057157663594
 20
10.092295575568691
 10
11.711018953939863
 20
10.092295575568691
 10
11.741016298967367
 20
10.092996533588074
 10
11.711032069076923
 20
10.09199267731126
 10
11.681032552814354
 20
10.09199267731126
 10
11.711018778486524
 20
10.091150062652623
 10
11.681018911317278
 20
10.091150062652623
 10
11.711000553270978
 20
10.090352035073659
 10
11.740978993201246
 20
10.090352035073659
 10
11.710940635955843
 20
10.090352035073659
 10
11.680935154279762
 20
10.091098632892745
 10
11.710928968308828
 20
10.091098632892745
 10
11.740923659604585
 20
10.091993620372957
 10
11.710894864566136
 20
10.091993620372957
 10
11.740874817781451
 20
10.092721861386492
 10
11.71090188269968
 20
10.091520729762088
 10
11.680901291785412
 20
10.091520729762088
 10
11.710885039179175
 20
10.090662806799658
 10
11.740876111749824
 20
10.091285907400037
 10
11.710857558800015
 20
10.091285907400037
 10
11.680854665060679
 20
10.09189716490006
 10
11.71085391814324
 20
10.09189716490006
 10
11.740846547862269
 20
10.092662865201387
 10
11.710853940074907
 20
10.091938308707963
 10
11.680862801709257
 20
10.091938308707963
 10
11.71083571485936
 20
10.090842734198395
 10
11.680836615298471
 20
10.091698771037436
 10
11.710843522532928
 20
10.091698771037436
 10
11.680840365613584
 20
10.092454273113457
 10
11.710812401496993
 20
10.091481910710922
 10
11.740798188535816
 20
10.092252172799054
 10
11.710815033297072
 20
10.092252172799054
 10
11.740775006763453
 20
10.092252172799054
 10
11.710750137493456
 20
10.092252172799054
 10
11.68074485320238
 20
10.092252172799054
 10
11.710730706036205
 20
10.09130564590063
 10
11.680734347933733
 20
10.09130564590063
 10
11.710714454670718
 20
10.090267005999438
 10
11.680702261904436
 20
10.090986781389386
 10
11.710690790401674
 20
10.090986781389386
 10
11.740673835982083
 20
10.091854705192118
 10
11.710652892480535
 20
10.091854705192118
 10
11.740640280531075
 20
10.092712759744552
 10
11.710653287250548
 20
10.091723641548182
 10
11.680663859554949
 20
10.091723641548182
 10
11.710662016054144
 20
10.09090532717694
 10
11.680653529739638
 20
10.09090532717694
 10
11.710647321837037
 20
10.090372914020952
 10
11.74064433788953
 20
10.091118502983342
 10
11.710629622981504
 20
10.091118502983342
 10
11.74062104645883
 20
10.092015881015293
 10
11.710594027885435
 20
10.092015881015293
 10
11.680578720822393
 20
10.092773554326378
 10
11.710566876481288
 20
10.092121043360116
 10
11.680572207117198
 20
10.092121043360116
 10
11.710563564799521
 20
10.09129792595373
 10
11.7405501194467
 20
10.092030860344074
 10
11.71051880226651
 20
10.092030860344074
 10
11.74050730883208
 20
10.09275631603586
 10
11.710533869321962
 20
10.091658285179552
 10
11.740529876517758
 20
10.092382907467979
 10
11.710544637770619
 20
10.091652385561042
 10
11.740534021602883
 20
10.09239200910992
 10
11.710533013986936
 20
10.091690064165507
 10
11.680532839774347
 20
10.092423788095875
 10
11.710515775696418
 20
10.09136451049573
 10
11.740502461933602
 20
10.092094220930978
 10
11.710482746605427
 20
10.092094220930978
 10
11.680478317649378
 20
10.092094220930978
 10
11.710473732690156
 20
10.091559307564914
 10
11.680473624272569
 20
10.091559307564914
 10
11.710475070521863
 20
10.091559307564914
 10
11.740474828032774
 20
10.09230215506889
 10
11.710457371666331
 20
10.09230215506889
 10
11.740456449295554
 20
10.09230215506889
 10
11.71043278626726
 20
10.09230215506889
 10
11.740419077734431
 20
10.09230215506889
 10
11.710384536599143
 20
10.09230215506889
 10
11.740364752994466
 20
10.093051911048072
 10
11.710349665248096
 20
10.093051911048072
 10
11.680348284793805
 20
10.093051911048072
 10
11.650346838544511
 20
10.092352312792062
 10
11.620331794661476
 20
10.092352312792062
 10
11.590303811094719
 20
10.092352312792062
 10
11.560295039668539
 20
10.092352312792062
 10
11.530264555891707
 20
10.092352312792062
 10
11.500245783625225
 20
10.092352312792062
 10
11.470222076733597
 20
10.092352312792062
 10
11.440209774308979
 20
10.092352312792062
 10
11.410142226014365
 20
10.092352312792062
 10
11.380077704289844
 20
10.092352312792062
 10
11.35007921881564
 20
10.092352312792062
 10
11.320050555367196
 20
10.092352312792062
 10
11.2900157510519
 20
10.092352312792062
 10
11.260013076629235
 20
10.092352312792062
 10
11.229987746794226
 20
10.092352312792062
  0
ENDSEC
  0
SECTION
  2
OBJECTS
  0
DICTIONARY
  5
A
330
0
100
AcDbDictionary
281
1
  3
ACAD_COLOR
350
B
  3
ACAD_GROUP
350
C
  3
ACAD_LAYOUT
350
D
  3
ACAD_MATERIAL
350
E
  3
ACAD_MLEADERSTYLE
350
F
  3
ACAD_MLINESTYLE
350
10
  3
ACAD_PLOTSETTINGS
350
11
  3
ACAD_PLOTSTYLENAME
350
12
  3
ACAD_SCALELIST
350
14
  3
ACAD_TABLESTYLE
350
15
  3
ACAD_VISUALSTYLE
350
16
  3
EZDXF_META
350
2D
  0
DICTIONARY
  5
B
330
A
100
AcDbDictionary
281
1
  0
DICTIONARY
  5
C
330
A
100
AcDbDictionary
281
1
  0
DICTIONARY
  5
D
330
A
100
AcDbDictionary
281
1
  3
Model
350
1A
  3
Layout1
350
1E
  0
DICTIONARY
  5
E
330
A
100
AcDbDictionary
281
1
  3
ByBlock
350
1F
  3
ByLayer
350
20
  3
Global
350
21
  0
DICTIONARY
  5
F
330
A
100
AcDbDictionary
281
1
  3
Standard
350
2C
  0
DICTIONARY
  5
10
330
A
100
AcDbDictionary
281
1
  3
Standard
350
22
  0
DICTIONARY
  5
11
330
A
100
AcDbDictionary
281
1
  0
ACDBDICTIONARYWDFLT
  5
12
330
A
100
AcDbDictionary
281
1
  3
Normal
350
13
100
AcDbDictionaryWithDefault
340
13
  0
ACDBPLACEHOLDER
  5
13
330
12
  0
DICTIONARY
  5
14
330
A
100
AcDbDictionary
281
1
  0
DICTIONARY
  5
15
330
A
100
AcDbDictionary
281
1
  0
DICTIONARY
  5
16
330
A
100
AcDbDictionary
281
1
  0
LAYOUT
  5
1A
330
D
100
AcDbPlotSettings
  1

  4
A3
  6

 40
7.5
 41
20.0
 42
7.5
 43
20.0
 44
420.0
 45
297.0
 46
0.0
 47
0.0
 48
0.0
 49
0.0
140
0.0
141
0.0
142
1.0
143
1.0
 70
1024
 72
1
 73
0
 74
5
  7

 75
16
 76
0
 77
2
 78
300
147
1.0
148
0.0
149
0.0
100
AcDbLayout
  1
Model
 70
1
 71
0
 10
0.0
 20
0.0
 11
420.0
 21
297.0
 12
0.0
 22
0.0
 32
0.0
 14
1e+20
 24
1e+20
 34
1e+20
 15
-1e+20
 25
-1e+20
 35
-1e+20
146
0.0
 13
0.0
 23
0.0
 33
0.0
 16
1.0
 26
0.0
 36
0.0
 17
0.0
 27
1.0
 37
0.0
 76
1
330
17
  0
LAYOUT
  5
1E
330
D
100
AcDbPlotSettings
  1

  4
A3
  6

 40
7.5
 41
20.0
 42
7.5
 43
20.0
 44
420.0
 45
297.0
 46
0.0
 47
0.0
 48
0.0
 49
0.0
140
0.0
141
0.0
142
1.0
143
1.0
 70
0
 72
1
 73
0
 74
5
  7

 75
16
 76
0
 77
2
 78
300
147
1.0
148
0.0
149
0.0
100
AcDbLayout
  1
Layout1
 70
1
 71
1
 10
0.0
 20
0.0
 11
420.0
 21
297.0
 12
0.0
 22
0.0
 32
0.0
 14
1e+20
 24
1e+20
 34
1e+20
 15
-1e+20
 25
-1e+20
 35
-1e+20
146
0.0
 13
0.0
 23
0.0
 33
0.0
 16
1.0
 26
0.0
 36
0.0
 17
0.0
 27
1.0
 37
0.0
 76
1
330
1B
  0
MATERIAL
  5
1F
102
{ACAD_REACTORS
330
E
102
}
330
E
100
AcDbMaterial
  1
ByBlock
  2

 70
0
 40
1.0
 71
1
 41
1.0
 91
-1023410177
 42
1.0
 72
1
  3

 73
1
 74
1
 75
1
 44
0.5
 73
0
 45
1.0
 46
1.0
 77
1
  4

 78
1
 79
1
170
1
 48
1.0
171
1
  6

172
1
173
1
174
1
140
1.0
141
1.0
175
1
  7

176
1
177
1
178
1
143
1.0
179
1
  8

270
1
271
1
272
1
145
1.0
146
1.0
273
1
  9

274
1
275
1
276
1
 42
1.0
 72
1
  3

 73
1
 74
1
 75
1
 94
63
  0
MATERIAL
  5
20
102
{ACAD_REACTORS
330
E
102
}
330
E
100
AcDbMaterial
  1
ByLayer
  2

 70
0
 40
1.0
 71
1
 41
1.0
 91
-1023410177
 42
1.0
 72
1
  3

 73
1
 74
1
 75
1
 44
0.5
 73
0
 45
1.0
 46
1.0
 77
1
  4

 78
1
 79
1
170
1
 48
1.0
171
1
  6

172
1
173
1
174
1
140
1.0
141
1.0
175
1
  7

176
1
177
1
178
1
143
1.0
179
1
  8

270
1
271
1
272
1
145
1.0
146
1.0
273
1
  9

274
1
275
1
276
1
 42
1.0
 72
1
  3

 73
1
 74
1
 75
1
 94
63
  0
MATERIAL
  5
21
102
{ACAD_REACTORS
330
E
102
}
330
E
100
AcDbMaterial
  1
Global
  2

 70
0
 40
1.0
 71
1
 41
1.0
 91
-1023410177
 42
1.0
 72
1
  3

 73
1
 74
1
 75
1
 44
0.5
 73
0
 45
1.0
 46
1.0
 77
1
  4

 78
1
 79
1
170
1
 48
1.0
171
1
  6

172
1
173
1
174
1
140
1.0
141
1.0
175
1
  7

176
1
177
1
178
1
143
1.0
179
1
  8

270
1
271
1
272
1
145
1.0
146
1.0
273
1
  9

274
1
275
1
276
1
 42
1.0
 72
1
  3

 73
1
 74
1
 75
1
 94
63
  0
MLINESTYLE
  5
22
102
{ACAD_REACTORS
330
10
102
}
330
10
100
AcDbMlineStyle
  2
Standard
 70
0
  3

 62
256
 51
90.0
 52
90.0
 71
2
 49
0.5
 62
256
  6
BYLAYER
 49
-0.5
 62
256
  6
BYLAYER
  0
MLEADERSTYLE
  5
2C
102
{ACAD_REACTORS
330
F
102
}
330
F
100
AcDbMLeaderStyle
179
2
170
2
171
1
172
0
 90
2
 40
0.0
 41
0.0
173
1
 91
-1056964608
 92
-2
290
1
 42
2.0
291
1
 43
8.0
  3
Standard
 44
4.0
300

342
29
174
1
175
1
176
0
178
1
 93
-1056964608
 45
4.0
292
0
297
0
 46
4.0
 94
-1056964608
 47
1.0
 49
1.0
140
1.0
294
1
141
0.0
177
0
142
1.0
295
0
296
0
143
3.75
271
0
272
9
273
9
  0
DICTIONARY
  5
2D
330
A
100
AcDbDictionary
280
1
281
1
  3
CREATED_BY_EZDXF
350
2E
  3
WRITTEN_BY_EZDXF
350
33
  0
DICTIONARYVAR
  5
2E
330
2D
100
DictionaryVariables
280
0
  1
1.4.4 @ 2026-07-10T11:12:19.276260+00:00
  0
DICTIONARYVAR
  5
33
330
2D
100
DictionaryVariables
280
0
  1
1.4.4 @ 2026-07-10T11:12:19.283111+00:00
  0
ENDSEC
  0
EOF
